<svg xmlns="http://www.w3.org/2000/svg" viewBox="0 0 150 139.36"><g id="Layer_2" data-name="Layer 2"><g id="Layer_1-2" data-name="Layer 1"><path d="M70.2.36c-3,1.1-3.6,3.1-2.2,7.4,1,3.1.9,3.9-.4,5.4a7.73,7.73,0,0,0-1.6,4.6c0,2.4-1,5.3-6.6,18.3a16.21,16.21,0,0,0-1.4,4.7c0,3,2.1,1.4,4-3a65.46,65.46,0,0,1,4.5-8.3l2.6-3.7-.7,4a42.25,42.25,0,0,1-2,7.4,17.87,17.87,0,0,0-1.4,6c-.1,3.3-10.3,17.8-13.7,19.4-2.2,1-2.7.8-4.5-1.6-3.5-4.8-9.3-2.8-8.6,2.9.4,3.4,3.6,4.7,7,3,2-1.1,2.8-1.1,4.3,0s2.5.7,8.2-4.3c3.5-3.1,7.1-6.9,7.9-8.5a6.67,6.67,0,0,1,4.4-3.5,7.15,7.15,0,0,0,4.3-2.7c1.2-1.7,6.1-3.8,14.5-6.2,1.6-.5,1.5-3.3-.2-4-.8-.3-2.8.2-4.5,1.1L81,40.36l.1-5.8a41.56,41.56,0,0,1,2.2-11.8l2.2-6,7.5-.5c5.5-.4,8.4-1.2,10.6-2.7a18.73,18.73,0,0,1,5.7-2.8c2.9-.8,3.7-2.5,1.2-2.5a13.6,13.6,0,0,0-4.7,1.6c-2.4,1.2-4.9,1.5-11.2,1C78.8,9.86,76,8.76,76,3.56,76,.76,73.2-.74,70.2.36Z"/><path d="M2.5,88.76C0,91.16,0,91.26,0,112c0,23.4.3,24.4,6.8,26.3,4.8,1.3,13.7,1.3,18.4-.1,5.6-1.5,6.8-4.6,6.8-17.4v-10.5H16v4c0,3.3.3,4,2,4s2,.7,2,5.9c0,5.6-.1,5.9-2.7,6.4-5.3,1-5.3.9-5.3-18.4V94.26h8v9H32v-5.1c0-10.1-2.3-11.8-16.3-11.9C5.6,86.26,4.8,86.36,2.5,88.76Z"/><path d="M42.5,88.76c-2.5,2.4-2.5,2.5-2.5,23,0,12.9.4,21.4,1.1,22.7,2.3,4.3,15,6.3,24.1,3.8,6.5-1.9,6.8-2.9,6.8-26.3,0-20.7,0-20.8-2.5-23.2-2.3-2.4-3.1-2.5-13.5-2.5S44.8,86.36,42.5,88.76Zm17,23.5v17.5l-3.7.3-3.8.3V113c0-9.5.3-17.7.7-18.1s2.1-.6,3.8-.4l3,.3Z"/><path d="M83.7,112.06c-3.1,14.1-5.7,26-5.7,26.4s2.4.8,5.4.8c5.9,0,5.7.1,7.1-6.8l.7-3.3,6.1.3,6.2.3.9,4.7.8,4.8h5.9c3.2,0,5.9-.2,5.9-.4,0-.6-2.4-10.9-6-26.1-1.6-6.6-3.6-15.3-4.5-19.3l-1.7-7.2H89.5ZM99.8,111l1.8,9.3H97.3c-2.4,0-4.3-.2-4.3-.4,0-1.2,3.2-17.3,3.7-18.6C97.4,99.36,97.6,100,99.8,111Z"/><path d="M123,112.76v26.5h27v-9H135v-44H123Z"/></g></g></svg>