<svg xmlns="http://www.w3.org/2000/svg" viewBox="0 0 46.69 99.49"><defs><style>.cls-1{fill:#fff;fill-rule:evenodd;}</style></defs><g id="Layer_2" data-name="Layer 2"><g id="OBJECTS"><path class="cls-1" d="M31.33,9.05a.12.12,0,0,0,0-.12.16.16,0,0,0-.18-.12c-.09-.11.07-.31-.63.33a1.26,1.26,0,0,0-.25.58,16.22,16.22,0,0,0-.22,3.09L30,25.12C29.81,37.76,28.85,50.39,28.81,63c0,2.22,0,4.44.14,6.66.08,1,.24,1.89.36,2.85a.3.3,0,0,0,.29.3.29.29,0,0,0,.3-.3c.13-1,.3-1.88.39-2.84.22-2.2.29-4.41.4-6.62.64-12.63,1.32-25.27,1.62-37.92l.06-12.37A20.57,20.57,0,0,0,32,9.73c-.06-.24-.34-.41-.22-.5C32.25,8.84,31.59,8.94,31.33,9.05Z"/><path class="cls-1" d="M43.89,73.19l-.07.07c-1.71,1.44-3.39,2.94-5,4.48s-3.26,3.08-4.85,4.65c-1.93,1.9-3.82,3.87-5.6,5.93a67.54,67.54,0,0,0-5,6.5c-.19.28-.83,1.33-1.25,2Q20.59,94.52,19,92.3q-1.83-2.47-3.79-4.84L3.44,75.27c2.43.08,9.89.41,13,.09,1.52-.16,2.29-.89,2.39-1.24.38-1.29.69-8.21.86-17,.26-13,.3-30.28.49-39.07L20,3.1,30.44,4.51c.1,1.31.32,3.94.7,7.36.19,1.68.47,3.52.73,5.51a.23.23,0,1,0,.45,0c.12-2,.26-3.87.3-5.56.13-5,0-8.33,0-8.33a1.1,1.1,0,0,0-.95-1L18.93.61A1.16,1.16,0,0,0,18,.89a1.18,1.18,0,0,0-.38.9L17.73,18c-.23,10.11-.31,31.42-.6,44.64-.12,5-.23,8.83-.44,10.34l-.47.08c-3.29.36-11.48,0-13.19,0a9.72,9.72,0,0,0-2.17.12,1.12,1.12,0,0,0-.78,1.53,9.69,9.69,0,0,0,1.47,1.85c3.06,3.28,10.81,10.87,12,12.29s2.52,3.13,3.71,4.75,2.33,3.26,3.41,5a2.66,2.66,0,0,0,.74.81,1.32,1.32,0,0,0,.8.16,2.16,2.16,0,0,0,1.26-.79A22.72,22.72,0,0,0,25.1,96,65.26,65.26,0,0,1,30,89.73c1.75-2,3.6-4,5.49-5.79,1.58-1.55,3.19-3.1,4.82-4.61s3.28-3,5-4.4c.18-.15,1.34-1.2,1.44-1.74a1.22,1.22,0,0,0-.35-1.14,6,6,0,0,0-4.07-1.15c-2.81,0-6.69.51-9.77.81-1.21.13-2.25.09-3.11.19-.4,0-.54.23-.88.28a.15.15,0,0,0-.21.07.16.16,0,0,0,.07.21,1.51,1.51,0,0,0,.53.79,5.53,5.53,0,0,0,3,.58c2.94.11,6.78-.67,9.73-.74A11,11,0,0,1,43.89,73.19Z"/><path class="cls-1" d="M30.08,5.58a7.91,7.91,0,0,0,.86.18c.63.08,1.06-.31-.33-.83a.15.15,0,0,0-.2.08h0a13.32,13.32,0,0,1-1.79-.82l-.86-.41a6,6,0,0,0-1-.53.19.19,0,0,1,.12.07l-.07,0,0,.11a2.73,2.73,0,0,1-.79.2.57.57,0,0,0,0,.26,10.09,10.09,0,0,0-1.89-1.1.58.58,0,0,0-.6.05.88.88,0,0,0-.26.48l-1.42-.92-.72-.44L21,1.8h0C18.94,0,18-.27,18,.2c-.48,0-.09.71,1.86,2.34l.05,0,.14.11.1.09.22.17-.11-.08-.19-.14-.23-.17,0,0,0,0a2.24,2.24,0,0,1,.17.2c.15.39-1,.61-1,.61l.09.08.42.34.87.67,2.08,1.78L25,8c1,.87,1.87,1.79,2.72,2.71l1.39,1.8c-.14-.14-.28-.27-.4-.37l-4.93-4-2.48-2-.9-.81a6,6,0,0,0-.65-.45.55.55,0,0,0-.5,0,.5.5,0,0,0-.34.48.59.59,0,0,0,.16.44l8.35,7.46L29,15.12l-4.41-3.74c-.89-.85-2.34-2.45-3.68-3.63a8,8,0,0,0-2-1.4.61.61,0,0,0-.91.44.64.64,0,0,0,.08.51c.06.1.4.43.53.57l.23.23,0,0a.89.89,0,0,0-.47,1.21,3.92,3.92,0,0,0,.29.62.88.88,0,0,0,.09.29,1.7,1.7,0,0,0,.37.45c.3.44.69,1,1.18,1.61a31.22,31.22,0,0,0,2.31,2.59c1.2,1.21,2.46,2.37,3.65,3.55.76.76,1.61,1.84,2.51,2.69a7.53,7.53,0,0,0,1.38,1.05.59.59,0,0,0,.93-.29A1.71,1.71,0,0,0,31,21.1l-.07-.1c.48-.08,1-.6.31-1.92l-.52-.92-.33-.45a1.58,1.58,0,0,0,.59.13.67.67,0,0,0,.63-.84,3.75,3.75,0,0,0-.86-1.61l-.54-.62a1.89,1.89,0,0,0,.6.15.64.64,0,0,0,.53-.9,12.84,12.84,0,0,0-.66-1.29l-1.09-1.36a4.35,4.35,0,0,0,.66.39,1,1,0,0,0,1,0c.23-.16.32-.65-.09-1.23-.1-.14-.22-.3-.36-.47a1.12,1.12,0,0,0,.49.07c.3,0,.66-.35.33-.95-.08-.14-.2-.32-.35-.53a1.31,1.31,0,0,0,.9,0,.69.69,0,0,0,.13-1.09,20.66,20.66,0,0,0-1.8-1.72ZM29,9.65a3.59,3.59,0,0,0-.42-.55,29.23,29.23,0,0,0-2.39-2c-1.4-1-2.85-2-4.26-3l1.47,1.19L28.77,9.5Zm-.76-4.29c-.25-.21-.51-.42-.77-.6L27,4.45l-.08,0-.18-.09.2.13Z"/><path class="cls-1" d="M30.55,22.93l-1.31-1.75L27,18.89c-.42-.49-.86-1-1.3-1.43Q24.32,16,22.86,14.73c-.42-.38-.94-1-1.49-1.45a3.46,3.46,0,0,0-.9-.57.64.64,0,0,0-.5,0,.63.63,0,0,0-.24,1.09l.2.16-.07,0a.8.8,0,0,0-.27,1.37c.08.08.42.32.55.44l.63.61a.85.85,0,0,0-1.19,1.2l.49.56a.75.75,0,0,0-.94,1,3,3,0,0,0,.6.89l.05.06a.87.87,0,0,0-.19-.1.59.59,0,0,0-.82.27.62.62,0,0,0,0,.59,6.91,6.91,0,0,0,.49.58l.58.69,2.68,3c1,1.3,2.08,2.61,3,4,.37.53.73,1.06,1.08,1.61l-1.13-1.29-2.13-2.23L20.8,24.28l-.88-.92-.15-.14a.57.57,0,0,0-.48-.17.65.65,0,0,0-.67.46.89.89,0,0,0,.1.81,11.34,11.34,0,0,0,1,1.2l.44.45a3.39,3.39,0,0,0-.53-.28.6.6,0,0,0-.75.19.62.62,0,0,0-.1.62,2.68,2.68,0,0,0,.25.37l.47.6a.67.67,0,0,0-.75.46.84.84,0,0,0,.13.78,3.19,3.19,0,0,0,.22.29.76.76,0,0,0-.44,0,.74.74,0,0,0-.43.48,1.69,1.69,0,0,0,.3.89l.81,1.14.44.49a.71.71,0,0,0-.52.46.84.84,0,0,0-.05.41l-.05-.07a3.34,3.34,0,0,0-.36-.42.59.59,0,0,0-1,.28.58.58,0,0,0,0,.47,6.11,6.11,0,0,0,1,1.47c.15.18.32.36.49.53l1.27,1.59a.67.67,0,0,0-.12.06.53.53,0,0,0-.13.73c.79,1.26,1.56,2.52,2.43,3.72,1.29,1.78,2.71,3.47,4,5.25a20.39,20.39,0,0,0,1.82,2.64,1.85,1.85,0,0,0,1.14.66c.64,0,.91-.32.86-.92a4.8,4.8,0,0,0-.46-1.18L29.79,47c.21.16.42.32.64.46a.54.54,0,0,0,.85-.19.57.57,0,0,0,0-.46,3,3,0,0,0-.27-.46c.41-.06.55-.34.46-.8a5.26,5.26,0,0,0-.57-1.17c-.18-.38-.38-.75-.59-1.12.46-.14.57-.5.38-1a5.31,5.31,0,0,0-.55-.87.74.74,0,0,0,.65-.21A.77.77,0,0,0,31,40.5a5.42,5.42,0,0,0-.57-1.27l-.32-.51a.58.58,0,0,0,.15-.11,1.34,1.34,0,0,0,.15-1.44,12.25,12.25,0,0,0-1-1.88.71.71,0,0,0,.53-.5,2,2,0,0,0-.18-1.51,10.09,10.09,0,0,0-.54-.93.66.66,0,0,0,.86-.16.71.71,0,0,0,.17-.67,4.69,4.69,0,0,0-.49-1.26l.13,0a.82.82,0,0,0,.24-1.06,10.48,10.48,0,0,0-.48-1,1,1,0,0,0,.42.16.72.72,0,0,0,.79-.48,1.85,1.85,0,0,0-.1-1.26,8.63,8.63,0,0,0-.71-1.32l.1.05c.58.21.74-.13.77-.45a2.84,2.84,0,0,0-.27-.67l-.32-.56,0,0a.38.38,0,0,0,.26,0c.15-.06.42-.25.16-.53A1.41,1.41,0,0,0,30.55,22.93ZM23.36,24l-.25-.29-1-1.06-1.28-1.46c.34.44.66.9.86,1.11l2,2.14Zm-1.77-6.82h0l-.45-.42.59.59Zm4.93,16.27c-.41-.58-.83-1.15-1.26-1.7-.79-1-1.62-2.05-2.46-3.05l-.3-.32c.64.86,1.22,1.74,1.68,2.28l1.14,1.45Zm.3-7.63c-.36-.49-.73-1-1.11-1.43s-.83-1-1.26-1.48L23.57,22c.45.53.89,1.06,1.32,1.6Z"/><path class="cls-1" d="M29.7,53.9a1,1,0,0,0,.35-1.32c-.21-.53-.75-1.56-1.12-2.26a.68.68,0,0,0,.78-.16.7.7,0,0,0,.21-.71,4.73,4.73,0,0,0-.36-.6l-.31-.5v0a3,3,0,0,0-.62-1.79c-.71-1.17-1.88-2.79-2.72-3.88-.46-.7-.94-1.4-1.42-2.08-.86-1.22-1.76-2.39-2.74-3.54a20.49,20.49,0,0,0-1.89-2.4A2,2,0,0,0,18.73,34c-.81,0-1,.43-1,.85a1.14,1.14,0,0,0,.17.65A14.11,14.11,0,0,0,19,36.86l.54.63a.92.92,0,0,0-.32-.09.87.87,0,0,0-1,.59,1.66,1.66,0,0,0,.35,1.47,23.43,23.43,0,0,0,1.86,1.94Q22,43,23.39,44.78l-.32-.36a33.89,33.89,0,0,0-2.62-2.63c-.18-.16-.31-.27-.37-.31a1,1,0,0,0-.51-.19,1,1,0,0,0-1.11.65,1.28,1.28,0,0,0,.19,1.2,17,17,0,0,0,1.59,1.7c.38.43.75.85,1.12,1.29A5.1,5.1,0,0,0,20,45.28a1,1,0,0,0-1.32.45,1,1,0,0,0,0,.9,9.2,9.2,0,0,0,1,1.08L21,49.22l.2.26-.31-.32a8,8,0,0,0-.93-1,1.22,1.22,0,0,0-.82-.16,1.07,1.07,0,0,0-.87.72A1.41,1.41,0,0,0,18.46,50a5.5,5.5,0,0,0,.57.7,1.32,1.32,0,0,0-1.1.14,1.24,1.24,0,0,0-.17,1.58,9.31,9.31,0,0,0,1.09,1.36,1.08,1.08,0,0,0-.91.66,1.43,1.43,0,0,0,.15,1.2,14.45,14.45,0,0,0,1.63,2,.92.92,0,0,0-.95,1.31l.06.11a1.06,1.06,0,0,0-.39,0,1,1,0,0,0-.88.68A1.84,1.84,0,0,0,18,61.23a14.88,14.88,0,0,0,1.34,1.49,1,1,0,0,0-.25,0,1.14,1.14,0,0,0-1,.79,1.51,1.51,0,0,0,.2,1.3,32,32,0,0,0,2.15,2.58l1.26,1.54a1,1,0,0,0,.15.32L24,72.38l1.67,2.35a1.28,1.28,0,0,0,1.54.53,1.19,1.19,0,0,0,.6-.56,10.83,10.83,0,0,0,1.34,1.36,1.42,1.42,0,0,0,1.39.24A1.32,1.32,0,0,0,31,74.53a28.1,28.1,0,0,0-1.62-2.72,1,1,0,0,0,.52-.15c.24-.16-.85-.43-.84-.81s.75-1.24.46-1.63l-.45-.57a1.09,1.09,0,0,0,.33-1.44c-.2-.41-.66-1.16-1-1.74a1.07,1.07,0,0,0,1-.13A1.2,1.2,0,0,0,29.58,64c-.1-.21-.28-.5-.47-.81A1.07,1.07,0,0,0,30,62.5a1.19,1.19,0,0,0,.06-.85,5.43,5.43,0,0,0-.53-.92l0,0h.06a.79.79,0,0,0,.9-.58.93.93,0,0,0,0-.65,11.7,11.7,0,0,0-.86-1.21l-.69-1.08a2.38,2.38,0,0,0,.85.24,1.2,1.2,0,0,0,1-1.68c-.2-.47-.86-1.62-.89-1.67ZM19.13,39.23c-.17-.13-.32-.18-.42-.07C18.41,39.5,18.73,39.42,19.13,39.23Zm9.77,8.49c0,.1.09.15.15.11S29,47.73,28.9,47.72Z"/><path class="cls-1" d="M43.55,74a.63.63,0,0,0-.12-.11,22.2,22.2,0,0,0-2.36-1.27,2.69,2.69,0,0,0-2.25-.13,1.21,1.21,0,0,0-.27,1l0,0A3.11,3.11,0,0,0,36.9,73a1.05,1.05,0,0,0-1,.48c-.15-.12-.31-.23-.46-.33a3.53,3.53,0,0,0-2.11-.58,1.28,1.28,0,0,0-1.26,1.06l0,.2a19.46,19.46,0,0,0-1.86-1.23,2.21,2.21,0,0,0-1.79-.28,1.54,1.54,0,0,0-.78,1.1l-.21-.2-3.09-2.56a9,9,0,0,0-1.91-1.28,1.49,1.49,0,0,0-.77-.11,10.07,10.07,0,0,0-.52-3,1.65,1.65,0,0,0-1.65-1.14,1.21,1.21,0,0,0-.95,1.46,14.63,14.63,0,0,0,.8,3.13l0,0,0,0a.91.91,0,0,0-.35,0,2.06,2.06,0,0,0-1,1.39c-.31,1-.43,2.85-.77,3.27a4.49,4.49,0,0,1-.91.42,2,2,0,0,0-1.74-.16,1.39,1.39,0,0,0-.5.4,1,1,0,0,0-.21.74c.22,1.25.87,1.54,1.77,1.38a3.5,3.5,0,0,0,.61-.19c.63.71,1.32,1.74,1.53,2l6.81,6.35A26.62,26.62,0,0,0,27.66,88a1.52,1.52,0,0,0,1.11.24,1,1,0,0,0,.81-1,3,3,0,0,0-.53-1.67h0a5,5,0,0,0,.82.45,1.15,1.15,0,0,0,1.63-.55,1.28,1.28,0,0,0,0-.64,2,2,0,0,0,.62.21c1,.15,1.24-.37,1.31-.86a1.22,1.22,0,0,0-.12-.73,1.66,1.66,0,0,0-.14-.25,6.65,6.65,0,0,1,.9-.47l.18,0a1.36,1.36,0,0,0,1.3-.31l.14,0a2.12,2.12,0,0,0,1-.76A1.89,1.89,0,0,0,37.1,80a1.14,1.14,0,0,0,.53-.25A1.34,1.34,0,0,0,38,78.25a2.82,2.82,0,0,0,1.71.19,1.83,1.83,0,0,0,.88-1.33,2.72,2.72,0,0,0,1.33.09,1.21,1.21,0,0,0,.53-1.89c-.18-.27-.47-.69-.79-1.1a9.52,9.52,0,0,0,1.26.34S44.65,73.53,43.55,74ZM15.27,76.32c-.09,0-.16,0-.21.17s.12-.06.17-.08Zm3.78-2L19,74.25v0l.08.06Zm1.33-2,0-.06,0,0h0l0,0,0,0,.07,0Zm14.37,6.47-.35-.29.18.23.17.06Zm3.37-4.92c0-.25,0-.45-.2-.28S38,73.78,38.12,73.87Zm2.09,0c-.28,0-.46,0-.44.25s.34-.08.4-.15A.34.34,0,0,0,40.21,73.87ZM40.68,76v.06c0,.06-.15.5,0,.39S40.8,76.18,40.68,76Z"/><path class="cls-1" d="M14.86,75.69a11.55,11.55,0,0,0-2.39-1.37c-2.81-1.14-2.87-.57-.72,1.22.08.07.36.25.38.27l1.19.84,3,2.47,3.32,3c.93,1.05,1.78,2.06,2.49,2.88l.54.64-5.95-5c-1.43-1.09-2.71-2.42-4.12-3.55a16.1,16.1,0,0,0-2-1.39c-.12-.07-1.28-.58-2.21-1l-1-.57a.81.81,0,0,0-1,.24.87.87,0,0,0,.22.7c-.35-.3-.71-.6-1.06-.87A6.45,6.45,0,0,0,4,73.31a.66.66,0,0,0-.88.93,1.91,1.91,0,0,0,.28.34A1,1,0,0,0,3,74.43a.6.6,0,0,0-.59.26.63.63,0,0,0-.07.69A5.22,5.22,0,0,0,3.66,77c1.06,1,2.51,1.94,3.26,2.62,1.64,1.48,3.27,3,4.85,4.61l.9.92a.86.86,0,0,0,0,1.08A9.67,9.67,0,0,0,14,87.61l2.07,2,1.08,1,0,.06s0,.07,0,.11l0,.09a.7.7,0,0,0,0,.52,2.55,2.55,0,0,0,.38.57h0c.46.61,1.3,1.61,1.38,1.7.43.52,1.08,1.59,1.73,2.37a3.51,3.51,0,0,0,1.21,1,.82.82,0,0,0,.91-.56.62.62,0,0,0,.57-.44.68.68,0,0,0,.05-.33.29.29,0,0,0,.14,0,1.07,1.07,0,0,0,.69-1.2,2.93,2.93,0,0,0-.45-1l1.18.84.17.14a.41.41,0,0,0,.11.06.72.72,0,0,0,1-.4,1.67,1.67,0,0,0-.32-1.37c-.2-.32-.49-.73-.83-1.17a4.16,4.16,0,0,0,.54-.23l.08,0a1.75,1.75,0,0,0,.43.2.77.77,0,0,0,1-.51,1,1,0,0,0-.09-.71l0,0h0a1.1,1.1,0,0,0,.59-.55l.08,0,.17.06a.87.87,0,0,0,.65-.06.9.9,0,0,0,.58-1,1,1,0,0,0-.52-.81l-.37-.2c-.48-.37-1.27-1.3-1.9-1.71L26.08,86l-1.39-1.5c-.89-1-1.8-2-2.73-2.9L26.27,85c.39.3,1.49,1,2.36,1.66a.14.14,0,0,0,.13.12.67.67,0,0,1,.12.06l.06,0c.25.21.46.64.65.81s.55.22.76-.16c0-.1,0-.41-.33-.75-.67-.71-2.53-2.17-3-2.63L19.9,78.39l-2.59-1.8-1.83-1.12a.43.43,0,0,0-.55.09A.42.42,0,0,0,14.86,75.69Zm2.36,8.42-4-4-1.52-1.32-2.47-2-.73-.42-.74-.43-.21-.08-.16-.07-.12-.06c.33.3.64.57.92.8Zm12.52,3.06c.09.06.17.06.21,0S29.83,87.08,29.74,87.17Z"/></g></g></svg>