<?xml version="1.0" encoding="UTF-8"?>
<svg xmlns="http://www.w3.org/2000/svg" viewBox="0 0 510 417.35">
  <defs>
    <style>
      .cls-1 {
        fill: #fdcf33;
      }

      .cls-2 {
        fill: #67c2ef;
      }

      .cls-3, .cls-4 {
        fill: #fff;
      }

      .cls-5 {
        fill: #ffd86c;
      }

      .cls-6 {
        fill: #e1e8f9;
      }

      .cls-7 {
        fill: #285faf;
      }

      .cls-8 {
        fill: #f4bf2a;
      }

      .cls-9, .cls-10, .cls-4, .cls-11, .cls-12, .cls-13, .cls-14 {
        opacity: .5;
      }

      .cls-15 {
        fill: #b3eaff;
      }

      .cls-16, .cls-17 {
        fill: #5275a0;
      }

      .cls-18, .cls-19 {
        opacity: .6;
      }

      .cls-20 {
        fill: #d7f6ff;
      }

      .cls-21 {
        fill: #3d3d3d;
      }

      .cls-21, .cls-22 {
        opacity: .3;
      }

      .cls-23 {
        fill: #8cc64b;
      }

      .cls-10 {
        fill: #d7ecfa;
      }

      .cls-24 {
        fill: #b9dbef;
      }

      .cls-25 {
        isolation: isolate;
      }

      .cls-26 {
        fill: #e6ecef;
      }

      .cls-27 {
        fill: #e9f9ff;
      }

      .cls-28 {
        fill: #1f3a71;
      }

      .cls-29 {
        opacity: .08;
      }

      .cls-30 {
        fill: #e49f05;
      }

      .cls-31, .cls-32, .cls-33 {
        fill: #389fe5;
      }

      .cls-34 {
        fill: #fcccb1;
        opacity: .25;
      }

      .cls-34, .cls-19, .cls-35, .cls-17, .cls-11, .cls-12, .cls-36, .cls-33, .cls-37 {
        mix-blend-mode: multiply;
      }

      .cls-38 {
        stroke: #e49f05;
        stroke-width: .36px;
      }

      .cls-38, .cls-39, .cls-40, .cls-41, .cls-42, .cls-14 {
        fill: none;
      }

      .cls-38, .cls-40, .cls-41 {
        stroke-miterlimit: 10;
      }

      .cls-43 {
        fill: #95e2f9;
      }

      .cls-44 {
        fill: #4c4051;
      }

      .cls-39, .cls-41, .cls-42, .cls-14 {
        stroke: #fff;
      }

      .cls-39, .cls-42, .cls-14 {
        stroke-linecap: round;
        stroke-linejoin: round;
      }

      .cls-39, .cls-14 {
        stroke-width: .89px;
      }

      .cls-45 {
        fill: #fffdff;
      }

      .cls-19 {
        fill: #fdd622;
      }

      .cls-40 {
        stroke: #389fe5;
      }

      .cls-35, .cls-17 {
        opacity: .35;
      }

      .cls-46 {
        fill: #b7ddf6;
      }

      .cls-47, .cls-12 {
        fill: #ffbe9d;
      }

      .cls-48 {
        fill: #c1ced6;
      }

      .cls-49 {
        fill: #fffae4;
      }

      .cls-50 {
        fill: #153351;
      }

      .cls-41 {
        stroke-width: .62px;
      }

      .cls-36, .cls-51 {
        fill: #b0d9ef;
      }

      .cls-52 {
        fill: #aabde2;
      }

      .cls-53, .cls-22 {
        fill: #ff9a30;
      }

      .cls-54 {
        fill: #ed9c80;
      }

      .cls-32 {
        opacity: .2;
      }

      .cls-42 {
        stroke-width: .75px;
      }

      .cls-22, .cls-13, .cls-55 {
        mix-blend-mode: screen;
      }

      .cls-56 {
        fill: #ffc8b0;
      }

      .cls-57 {
        fill: #b0eeff;
      }

      .cls-58 {
        fill: #cfeffe;
      }

      .cls-59 {
        fill: #f2a181;
      }

      .cls-55 {
        fill: #ffbd1d;
      }
    </style>
  </defs>
  <g class="cls-25">
    <g id="_레이어_2" data-name="레이어 2">
      <g id="OBJECT">
        <g>
          <g>
            <g>
              <path class="cls-57" d="m304.17,336.6c4.23-8.6,11.07-15.72,18.62-21.5,6.09-4.66,12.98-9.2,20.19-11.88,6.4-2.38,7.82,3.21,12.98,5.12,3.3,1.22,6.96-.65,9.56-3.02,2.5-2.29,4.57-5.17,7.56-6.89,2.2-1.27,5.49-1.9,7.81-.54,2.87,1.69,2.38,5.83,6.26,6.3,1.81.22,3.61-.43,5.24-1.23,3.85-1.89,7.66-3.63,11.78-4.84,3.73-1.09,8.56-1.46,10.71,1.78,2.07,3.1.1,7.32-2.38,10.09-5.99,6.69-14.83,10.3-23.73,11.48-2.43.32-4.92.5-7.16,1.48-2.24.99-4.22,3.02-4.31,5.47-.05,1.32.44,2.6.46,3.92.05,3.66-3.56,6.39-7.13,7.21-9.18,2.1-15.15-5.96-23.78-7.2-9.78-1.4-24.85.13-31.64,8.36"/>
              <path class="cls-14" d="m320.3,332.58c9.46-8.82,22.01-14.67,35.13-16.37,8.18-1.06,16.47-.55,24.68-1.29,8.21-.74,16.72-2.96,22.64-8.43"/>
            </g>
            <g>
              <path class="cls-57" d="m363.16,296.19c4.89-2.83,10.14-6.76,8.75-12.75-.45-1.97-1.9-3.76-1.66-5.76.16-1.32,1.04-2.42,1.69-3.59,1.53-2.77,1.74-6.23.56-9.17-1.26-3.16-3.93-5.53-5.6-8.5-1.36-2.42-2.03-5.23-1.9-8-5.16.54-9.62,3.8-14.62,5.21-3.82,1.08-7.9,1.06-11.67,2.29-6.88,2.26-12.06,8.97-12.5,16.2-3.31-.26-6.71,1.24-8.76,3.85-2.17,2.78-3.2,6.55-2.65,10.04,2.25,14.54,9.73,26.1,19.3,36.88-2.08-2.35,4.31-9.63,5.55-11.05,5.37-6.17,12.75-9.73,19.79-13.59,1.12-.62,2.41-1.29,3.72-2.05Z"/>
              <g class="cls-9">
                <path class="cls-39" d="m335.26,303.37c-1.22-6.23.41-12.65,2.41-18.68,1.94-5.88,4.27-11.67,7.62-16.87,3.36-5.2,7.81-9.8,13.29-12.66"/>
                <path class="cls-39" d="m336.91,261.03c-.13,5.67.94,12.38,2.9,17.7"/>
                <path class="cls-39" d="m340.68,276.62c6.03-4.7,15.65-8.09,23.29-8.35"/>
                <path class="cls-39" d="m325.11,279.11c8.01,2.55,9.37,13.86,9.87,17.06"/>
                <path class="cls-39" d="m336.42,288.76c5.51-4.77,15-9.87,21.42-8.87"/>
                <path class="cls-39" d="m335.25,302.78c4.38-5.84,16.35-12.98,22.77-11.98"/>
                <path class="cls-39" d="m349.73,256.91c-1.57,2.35-1.78,5-1.43,6.78"/>
                <path class="cls-39" d="m349.83,261.94c2.59-1.64,6.2-2.3,10.18-1.68"/>
              </g>
            </g>
            <g>
              <path class="cls-57" d="m223.97,347.08c-6.61-18.12-23.57-35.02-40.27-44.67-4.07-2.35-10.02-4.13-11.88,1.49-1.2,3.61-5.41,2.67-7.81,1-2.98-2.07-4.72-5.43-7.25-7.96-2.03-2.03-4.62-3.59-7.46-4.05-2.84-.46-5.93.28-8.01,2.27-1.58,1.5-2.53,3.62-4.28,4.93-2.93,2.19-7.2,1.37-10.32-.54-3.12-1.91-5.58-4.74-8.6-6.81-3.02-2.06-7.1-3.28-10.32-1.54-4.26,2.31-4.65,8.47-2.84,12.97,1.12,2.78,2.88,6.81,5.01,8.98,3.01,3.09,7.4,5.15,11.59,5.97,3.09.61,6.28.59,9.35,1.32,1.11.26,2.38.73,2.6,2.01.32,1.84-1.96,2.97-3.29,3.64-2.3,1.16-4.58,3.69-3.51,6.03.67,1.47,2.4,2.13,3.99,2.4,4.79.81,9.53-.57,14.07-1.97,2.76-.85,5.18-2.58,8.02-3.31,1.47-.38,5.24-.55,4.84,1.94-.13.78-.68,1.42-1.28,1.93-.6.51-1.27.95-1.77,1.56-2.18,2.65-.02,5.76,2.84,6.45,2.2.53,4.49-.03,6.69-.55,14.38-3.36,29.46-4.66,43.93-1.73,3.08.62,6.45,1.68,8,4.42"/>
              <path class="cls-14" d="m208.47,335.66c-10.58-9.79-24.59-16.25-39.23-18.08-9.12-1.14-18.36-.54-27.51-1.33-9.15-.79-18.65-3.22-25.27-9.29"/>
              <g>
                <path class="cls-34" d="m211.75,337.07s-25.15-16.73-32.25-33.7c4.8,1.3,7.9,2.86,11.27,5.6,3.63,5.13,12.28,13.01,18.15,18.12.84,2.8,1.77,6.09,2.83,9.98Z"/>
                <path class="cls-57" d="m210.8,331.32c-.94-5.91-3.55-11.77-4.57-17.78-1.64-9.63-1.89-19.31-.11-28.88,1.52-8.15,4.04-16.69,1.28-24.94-.73-2.19-2.09-4.56-4.93-4.54-1.14,0-2.22.48-3.04,1.21-2.07,1.84-2.45,4.48-2.79,7l-1.13,8.43c-.37,2.74-4.54,3.07-5.38.4,0-.02-.01-.04-.02-.07-.68-2.24-.56-4.61-.38-6.92.39-5.03,1.04-10.1.27-15.11-.93-6.06-4.26-12.21-10.74-14.49-2.3-.81-4.84-.91-7.16-.25-6.49,1.85-7.8,7.97-6.5,13.09.92,3.6,2.95,6.87,4.81,10.16,4.54,8.02,2.09,15.65,3.23,24.62,2.41,19,21.01,37.37,37.17,48.05Z"/>
                <path class="cls-14" d="m175.28,246.4c13.59,16.44,8.68,55.26,32.36,76.21"/>
                <path class="cls-14" d="m201.8,265.71c1.55,8.31-3.79,17.64-5.03,22.81-1.24,5.17-1.89,13.98-.56,19.17"/>
              </g>
            </g>
            <path class="cls-27" d="m162.78,346.91c-.59-3.32-9.87-24.04-20.61-18.49-6.38,3.3-5.23,15.43,4.73,24.59-1.96-1.89-4.21-4.04-6.88-4.57-1.44-.29-3.21.38-4.29,1.37-.96.89-1.24,2.29-1.29,3.6-.16,4.75,2.32,9.51,6.3,12.11-2.2-1.23-4.11-2.77-6.63-2.99-.82-.07-2.2.4-2.58,1.13-.41.79-.38,3.76,4.47,5.98-19.78-3.75-20.93,4.68-13.82,4.68h58.31"/>
            <path class="cls-20" d="m199.84,330.46c-.94-5.32-10.74-38.76-27.93-29.88-10.21,5.28-8.38,24.7,7.58,39.37-3.13-3.03-6.75-6.46-11.02-7.31-2.31-.46-5.13.6-6.86,2.2-1.54,1.42-1.99,3.66-2.06,5.76-.26,7.61,3.71,15.23,10.09,19.38-3.53-1.97-6.59-4.44-10.61-4.79-1.31-.11-3.53.64-4.13,1.8-.66,1.27-.61,6.02,7.15,9.57-31.66-6.01-33.51,7.49-22.13,7.49h75.22"/>
            <path class="cls-27" d="m369.23,346.91c.59-3.32,9.87-24.04,20.61-18.49,6.38,3.3,5.23,15.43-4.73,24.59,1.96-1.89,4.21-4.04,6.88-4.57,1.44-.29,3.21.38,4.29,1.37.96.89,1.24,2.29,1.29,3.6.16,4.75-2.32,9.51-6.3,12.11,2.2-1.23,4.11-2.77,6.63-2.99.82-.07,2.2.4,2.58,1.13.41.79.38,3.76-4.47,5.98,19.78-3.75,20.93,4.68,13.82,4.68h-58.31"/>
            <path class="cls-20" d="m332.16,330.46c.94-5.32,10.74-38.76,27.93-29.88,10.21,5.28,8.38,24.7-7.58,39.37,3.13-3.03,6.75-6.46,11.02-7.31,2.31-.46,5.13.6,6.86,2.2,1.54,1.42,1.99,3.66,2.06,5.76.26,7.61-3.71,15.23-10.09,19.38,3.53-1.97,6.59-4.44,10.61-4.79,1.31-.11,3.53.64,4.13,1.8.66,1.27.61,6.02-7.15,9.57,31.66-6.01,33.51,7.49,22.13,7.49h-75.22"/>
          </g>
          <g>
            <path class="cls-32" d="m278.77,261.98c-8.71-2.4-15.34-9.79-15.86-18.81-.02-.44-.04-.87-.04-1.3,0-.12,0-.26.02-.39-.02-.12-.02-.26-.02-.39,0-.43.02-.86.04-1.3.52-9.02,7.15-16.41,15.86-18.81,32.81-9.08,56.92-39.16,56.92-74.86,0-4.8-.43-9.5-1.28-14.06-.14-.78-.29-1.55-.46-2.31-.12-.56-.24-1.12-.38-1.68,0-.03-.01-.07-.02-.1-.07-.29-.14-.58-.22-.87-.13-.56-.27-1.1-.43-1.65-.23-.84-.47-1.67-.73-2.5h-2.65c.09.27.18.54.25.81.02.05.04.09.05.14.15.47.29.94.42,1.41.09.31.18.61.25.92.14.49.27.97.39,1.46.08.31.16.62.22.92.13.5.24.99.34,1.49.04.17.08.34.11.51.01.06.03.13.04.2.12.57.23,1.14.33,1.71.82,4.42,1.24,8.99,1.24,13.6,0,33.67-22.65,63.45-55.06,72.42-10.03,2.77-17.15,11.24-17.71,21.11-.03.48-.04.96-.04,1.44,0,.13,0,.27.01.39-.01.13-.01.27-.01.39,0,.48.01.96.04,1.44.56,9.87,7.68,18.35,17.71,21.11,32.41,8.97,55.06,38.76,55.06,72.42,0,4.61-.42,9.19-1.24,13.61-1.13,6.3-3.09,12.43-5.83,18.25h-136.13c-2.74-5.82-4.7-11.95-5.84-18.26-.82-4.41-1.23-8.99-1.23-13.6,0-33.66,22.65-63.45,55.06-72.42,10.03-2.76,17.14-11.24,17.71-21.11.03-.48.04-.96.04-1.44,0-.12,0-.26-.01-.39.01-.12.01-.26.01-.39,0-.48-.01-.96-.04-1.44-.57-9.87-7.68-18.34-17.71-21.11-32.41-8.97-55.06-38.75-55.06-72.42,0-4.61.41-9.18,1.23-13.6.14-.79.3-1.57.47-2.36,0-.02.01-.04.01-.06.17-.76.34-1.52.53-2.28.01-.04.02-.08.03-.13.15-.58.3-1.17.47-1.74.01-.05.03-.09.04-.14.05-.22.12-.45.19-.67.11-.42.24-.83.37-1.24.01-.05.03-.09.05-.14.07-.27.16-.54.25-.81h-2.65c-.26.83-.5,1.66-.73,2.5-.16.55-.3,1.09-.43,1.65-.08.29-.15.58-.22.87-.01.03-.02.07-.02.1-.14.56-.26,1.12-.38,1.68-.17.76-.32,1.53-.46,2.31-.85,4.56-1.28,9.26-1.28,14.06,0,35.7,24.1,65.78,56.92,74.86,8.7,2.4,15.34,9.79,15.85,18.81.03.44.04.87.04,1.3,0,.13,0,.27-.01.39.01.13.01.27.01.39,0,.43-.01.86-.04,1.3-.51,9.02-7.15,16.41-15.85,18.81-32.82,9.09-56.92,39.16-56.92,74.86,0,4.8.43,9.5,1.28,14.06,1.3,7.18,3.6,14,6.73,20.33h139.31c3.13-6.33,5.43-13.15,6.73-20.33.85-4.56,1.28-9.26,1.28-14.06,0-35.7-24.11-65.77-56.92-74.86Z"/>
            <path class="cls-3" d="m333.16,336.84c0,4.61-.42,9.19-1.24,13.61-1.13,6.3-3.09,12.43-5.83,18.25h-136.13c-2.74-5.82-4.7-11.95-5.84-18.26-.82-4.41-1.23-8.99-1.23-13.6,0-33.66,22.65-63.45,55.06-72.42,10.03-2.76,17.14-11.24,17.71-21.11.03-.48.04-.96.04-1.44,0-.12,0-.26-.01-.39.01-.12.01-.26.01-.39,0-.48-.01-.96-.04-1.44-.57-9.87-7.68-18.34-17.71-21.11-32.41-8.97-55.06-38.75-55.06-72.42,0-4.61.41-9.18,1.23-13.6.14-.79.3-1.57.47-2.36,0-.02.01-.04.01-.06.16-.76.34-1.52.53-2.28.01-.04.02-.08.03-.13.16-.63.32-1.25.51-1.88.17-.64.36-1.28.56-1.91.1-.32.2-.64.3-.95h142.99c.1.31.2.63.3.95.15.47.29.94.42,1.41.09.31.18.61.25.92.14.49.27.97.39,1.46.08.31.16.62.22.92.13.5.24.99.34,1.49.05.23.1.47.15.71.12.57.23,1.14.33,1.71.82,4.42,1.24,8.99,1.24,13.6,0,33.67-22.65,63.45-55.06,72.42-10.03,2.77-17.15,11.24-17.71,21.11-.03.48-.04.96-.04,1.44,0,.13,0,.27.01.39-.01.13-.01.27-.01.39,0,.48.01.96.04,1.44.56,9.87,7.68,18.35,17.71,21.11,32.41,8.97,55.06,38.76,55.06,72.42Z"/>
            <path class="cls-10" d="m333.16,336.84c0,4.61-.42,9.19-1.24,13.61-1.13,6.3-3.09,12.43-5.83,18.25h-136.13c-2.74-5.82-4.7-11.95-5.84-18.26-.82-4.41-1.23-8.99-1.23-13.6,0-33.66,22.65-63.45,55.06-72.42,10.03-2.76,17.14-11.24,17.71-21.11.03-.48.04-.96.04-1.44,0-.12,0-.26-.01-.39.01-.12.01-.26.01-.39,0-.48-.01-.96-.04-1.44-.57-9.87-7.68-18.34-17.71-21.11-32.41-8.97-55.06-38.75-55.06-72.42,0-4.61.41-9.18,1.23-13.6.14-.79.3-1.57.47-2.36,0-.02.01-.04.01-.06.16-.76.34-1.52.53-2.28.01-.04.02-.08.03-.13.16-.63.32-1.25.51-1.88.17-.64.36-1.28.56-1.91.1-.32.2-.64.3-.95h142.99c.1.31.2.63.3.95.15.47.29.94.42,1.41.09.31.18.61.25.92.14.49.27.97.39,1.46.08.31.16.62.22.92.13.5.24.99.34,1.49.05.23.1.47.15.71.12.57.23,1.14.33,1.71.82,4.42,1.24,8.99,1.24,13.6,0,33.67-22.65,63.45-55.06,72.42-10.03,2.77-17.15,11.24-17.71,21.11-.03.48-.04.96-.04,1.44,0,.13,0,.27.01.39-.01.13-.01.27-.01.39,0,.48.01.96.04,1.44.56,9.87,7.68,18.35,17.71,21.11,32.41,8.97,55.06,38.76,55.06,72.42Z"/>
            <path class="cls-53" d="m196.06,190.37s11.85,19.42,40.27,28.35c7.28,2.14,9.73,3.72,13.92,7.58,4.19,3.86,5.62,10.65,5.46,16.02-.06,4.16,2.33,65,2.33,72.58,0,7.15.93,1.85.72.32.74-43.06,1.61-74.73,1.61-74.73,0,0,2.57-13.54,6.56-15.4,3.98-1.87,18.44-8.58,24.35-10.24s20.21-14.69,20.21-14.69c0,0,18.16-25.9,19.26-29.21,1.11-3.32-8.21-3.63-8.21-3.63l-126.48,23.05Z"/>
            <ellipse class="cls-1" cx="262.34" cy="177.46" rx="69.76" ry="14.41" transform="translate(-24.33 42.79) rotate(-8.91)"/>
            <g class="cls-13">
              <path class="cls-3" d="m237.58,209c-.82,0-1.65-.13-2.46-.41-5.43-1.87-10.46-4.24-14.96-7.06-3.54-2.23-4.61-6.91-2.39-10.45,2.23-3.54,6.91-4.61,10.45-2.39,3.51,2.2,7.48,4.07,11.82,5.56,3.96,1.36,6.07,5.67,4.71,9.63-1.08,3.14-4.02,5.12-7.17,5.12Z"/>
              <path class="cls-3" d="m207.94,186.64c-2.51,0-4.96-1.24-6.4-3.51-13.22-20.77-9.81-44.09-9.66-45.08.64-4.14,4.51-6.98,8.64-6.34,4.13.64,6.96,4.49,6.34,8.62-.04.31-2.58,18.86,7.47,34.66,2.25,3.53,1.21,8.22-2.33,10.46-1.26.8-2.67,1.19-4.06,1.19Z"/>
            </g>
            <g class="cls-13">
              <path class="cls-3" d="m237.58,273.11c-.82,0-1.65.13-2.46.41-5.43,1.87-10.46,4.24-14.96,7.06-3.54,2.23-4.61,6.91-2.39,10.45,2.23,3.54,6.91,4.61,10.45,2.39,3.51-2.2,7.48-4.07,11.82-5.56,3.96-1.36,6.07-5.67,4.71-9.63-1.08-3.14-4.02-5.12-7.17-5.12Z"/>
              <path class="cls-3" d="m207.94,295.47c-2.51,0-4.96,1.24-6.4,3.51-13.22,20.77-9.81,44.09-9.66,45.08.64,4.14,4.51,6.98,8.64,6.34,4.13-.64,6.96-4.49,6.34-8.62-.04-.31-2.58-18.86,7.47-34.66,2.25-3.53,1.21-8.22-2.33-10.46-1.26-.8-2.67-1.19-4.06-1.19Z"/>
            </g>
            <path class="cls-46" d="m278.77,261.98c-8.71-2.4-15.34-9.79-15.86-18.81-.02-.44-.04-.87-.04-1.3,0-.12,0-.26.02-.39-.02-.12-.02-.26-.02-.39,0-.43.02-.86.04-1.3.52-9.02,7.15-16.41,15.86-18.81,32.81-9.08,56.92-39.16,56.92-74.86,0-4.8-.43-9.5-1.28-14.06-.14-.78-.29-1.55-.46-2.31-.12-.56-.24-1.12-.38-1.68,0-.03-.01-.07-.02-.1-.07-.29-.14-.58-.22-.87-.13-.56-.27-1.1-.43-1.65-.23-.84-.47-1.67-.73-2.5h-2.65c.09.26.17.54.25.81.02.05.04.09.05.14.15.47.29.94.42,1.41.09.31.18.61.25.92.14.49.27.97.39,1.46.08.31.16.62.22.92.13.5.24.99.34,1.49.04.17.07.34.11.51.01.06.03.13.04.2.12.57.23,1.14.33,1.71.82,4.42,1.24,8.99,1.24,13.6,0,33.67-22.65,63.45-55.06,72.42-10.03,2.77-17.15,11.24-17.71,21.11-.03.48-.04.96-.04,1.44,0,.13,0,.27.01.39-.01.13-.01.27-.01.39,0,.48.01.96.04,1.44.56,9.87,7.68,18.35,17.71,21.11,32.41,8.97,55.06,38.76,55.06,72.42,0,4.61-.42,9.19-1.24,13.61-1.13,6.3-3.09,12.43-5.83,18.25h-136.13c-2.74-5.82-4.7-11.95-5.84-18.26-.82-4.41-1.23-8.99-1.23-13.6,0-33.66,22.65-63.45,55.06-72.42,10.03-2.76,17.14-11.24,17.71-21.11.03-.48.04-.96.04-1.44,0-.12,0-.26-.01-.39.01-.12.01-.26.01-.39,0-.48-.01-.96-.04-1.44-.57-9.87-7.68-18.34-17.71-21.11-32.41-8.97-55.06-38.75-55.06-72.42,0-4.61.41-9.18,1.23-13.6.14-.79.3-1.58.47-2.36,0-.02.01-.04.01-.06.17-.76.34-1.52.53-2.28.01-.04.02-.08.03-.13.15-.58.3-1.17.47-1.74.01-.05.03-.09.04-.14.06-.22.12-.45.19-.67.11-.42.24-.83.37-1.24.01-.05.03-.09.05-.14.08-.27.16-.55.25-.81h-2.65c-.26.83-.5,1.66-.73,2.5-.16.55-.3,1.09-.43,1.65-.08.29-.15.58-.22.87-.01.03-.02.07-.02.1-.14.56-.26,1.12-.38,1.68-.17.76-.32,1.53-.46,2.31-.85,4.56-1.28,9.26-1.28,14.06,0,35.7,24.1,65.78,56.92,74.86,8.7,2.4,15.34,9.79,15.85,18.81.03.44.04.87.04,1.3,0,.13,0,.27-.01.39.01.13.01.27.01.39,0,.43-.01.86-.04,1.3-.51,9.02-7.15,16.41-15.85,18.81-32.82,9.09-56.92,39.16-56.92,74.86,0,4.8.43,9.5,1.28,14.06,1.3,7.18,3.6,14,6.73,20.33h139.31c3.13-6.33,5.43-13.15,6.73-20.33.85-4.56,1.28-9.26,1.28-14.06,0-35.7-24.11-65.77-56.92-74.86Z"/>
            <path class="cls-31" d="m354.83,367.1h0c0,4.06-3.29,7.35-7.35,7.35h-178.91c-4.06,0-7.35-3.29-7.35-7.35h0c0-4.06,3.29-7.35,7.35-7.35h178.91c4.06,0,7.35,3.29,7.35,7.35Z"/>
            <g>
              <path class="cls-53" d="m317.48,169.61c.12.55-1.38,1.34-3.34,1.76-1.96.42-3.65.3-3.77-.25-.12-.55,1.38-1.34,3.34-1.76,1.96-.42,3.65-.3,3.77.25Z"/>
              <path class="cls-53" d="m312.97,175.99c.12.55-.8,1.22-2.06,1.48-1.25.26-2.36.03-2.48-.52s.8-1.22,2.06-1.48c1.25-.27,2.36-.03,2.48.52Z"/>
              <path class="cls-53" d="m307.23,174.31c.12.55-.8,1.22-2.06,1.48-1.25.27-2.36.03-2.48-.52-.12-.55.8-1.22,2.06-1.48,1.25-.27,2.36-.03,2.48.52Z"/>
              <path class="cls-53" d="m267.61,179.41c.06.3-.43.66-1.11.8-.68.14-1.28.02-1.34-.28-.06-.3.43-.66,1.11-.8.68-.14,1.28-.02,1.34.28Z"/>
              <path class="cls-53" d="m298.22,170.11c.06.3-.43.66-1.11.8-.68.14-1.28.02-1.34-.28-.06-.3.43-.66,1.11-.8s1.28-.02,1.34.28Z"/>
              <path class="cls-53" d="m287.13,180.79c.06.3-.43.66-1.11.8-.68.14-1.28.02-1.34-.28-.06-.3.43-.66,1.11-.8.68-.14,1.28-.02,1.34.28Z"/>
              <path class="cls-53" d="m272.32,187.87c.06.3-.43.66-1.11.8-.68.14-1.28.02-1.34-.28-.06-.3.43-.66,1.11-.8.68-.14,1.28-.02,1.34.28Z"/>
            </g>
            <path class="cls-53" d="m258.88,307.2l-.52-.2-.52.2s-4.47,34.98-52.48,52.55h105.99c-48-17.58-52.48-52.55-52.48-52.55Z"/>
            <path class="cls-24" d="m332.41,123.74c0,3.9-33.3,7.07-74.39,7.07s-74.39-3.16-74.39-7.07,33.3-7.07,74.39-7.07,74.39,3.16,74.39,7.07Z"/>
            <path class="cls-31" d="m347.48,112.86h-178.91c-2.03,0-3.87.82-5.2,2.15s-2.15,3.17-2.15,5.2c0,4.05,3.29,7.34,7.35,7.34h178.91c4.06,0,7.35-3.29,7.35-7.34s-3.29-7.35-7.35-7.35Z"/>
          </g>
          <line class="cls-40" y1="374.44" x2="510" y2="374.44"/>
          <g>
            <g>
              <path class="cls-26" d="m25.22,411.46c0,2.85,27.26,5.15,60.9,5.15s60.9-2.31,60.9-5.15-27.26-5.15-60.9-5.15-60.9,2.31-60.9,5.15Z"/>
              <g>
                <g>
                  <path class="cls-55" d="m87.43,230.55c-.43,2.35-.53,4.79-.3,7.27l.92.19h.05s.68,0,.68,0l.73-.78.34-4.94-.93-2.89-6.62-4.57-1.05-.38,6.17,6.1Z"/>
                  <path class="cls-53" d="m81.38,244.27l2.66,6.34v.04s7.71-.04,7.71-.04h.88c1.36,1.96,2.98,3.72,4.79,5.24l-.28,9.21,6.4,2.63,5.82-5.89.2-.2c2.32.42,4.73.52,7.17.3l-.03.02,6.28,6.7,5.98-2.5.4-.17-.05-8.58c1.98-1.36,3.74-2.99,5.26-4.81h0s8.98.3,8.98.3h.2s2.63-6.39,2.63-6.39l-6.09-6.02c.43-2.33.52-4.76.3-7.22v.02s6.72-6.22,6.72-6.22l-2.67-6.38h0l-8.57.05c-1.34-1.94-2.94-3.68-4.73-5.19v-.18s.21-9.08.21-9.08l-6.4-2.63-.02.03-6,6.06c-2.28-.42-4.64-.51-7.05-.31l-.57-.6-5.8-6.11-.05.02-6.33,2.64.05,8.58c-1.98,1.37-3.75,3-5.28,4.83l-9.17-.32-2.62,6.4,6.08,6.02c-.42,2.32-.52,4.73-.3,7.17l-.02-.03-.02.02-6.67,6.26Z"/>
                  <circle class="cls-22" cx="114.67" cy="235.67" r="23.44" transform="translate(-107.28 96.28) rotate(-31.92)"/>
                  <circle class="cls-49" cx="114.23" cy="235.06" r="17.94" transform="translate(-139.55 172.6) rotate(-50.25)"/>
                  <g>
                    <line class="cls-38" x1="114.23" y1="217.11" x2="114.23" y2="219.42"/>
                    <line class="cls-38" x1="127.01" y1="222.55" x2="125.37" y2="224.19"/>
                    <line class="cls-38" x1="132.19" y1="235.44" x2="129.88" y2="235.44"/>
                    <line class="cls-38" x1="126.74" y1="248.22" x2="125.11" y2="246.59"/>
                    <line class="cls-38" x1="113.86" y1="253.41" x2="113.86" y2="251.09"/>
                    <line class="cls-38" x1="101.08" y1="247.96" x2="102.71" y2="246.32"/>
                    <line class="cls-38" x1="98.47" y1="235.07" x2="96.16" y2="235.07"/>
                    <line class="cls-38" x1="101.46" y1="222.41" x2="103.09" y2="224.04"/>
                  </g>
                  <g>
                    <line class="cls-38" x1="121.19" y1="218.43" x2="120.65" y2="219.75"/>
                    <line class="cls-38" x1="131.07" y1="228.22" x2="129.76" y2="228.77"/>
                    <line class="cls-38" x1="131.14" y1="242.13" x2="129.83" y2="241.58"/>
                    <line class="cls-38" x1="121.36" y1="252.01" x2="120.81" y2="250.69"/>
                    <line class="cls-38" x1="107.45" y1="252.08" x2="107.99" y2="250.76"/>
                    <line class="cls-38" x1="97.57" y1="242.29" x2="98.88" y2="241.75"/>
                    <line class="cls-38" x1="97.5" y1="228.39" x2="98.81" y2="228.93"/>
                  </g>
                  <line class="cls-38" x1="107.28" y1="218.5" x2="107.83" y2="219.82"/>
                  <path class="cls-23" d="m112.87,235.06c0,.75.61,1.36,1.36,1.36s1.36-.61,1.36-1.36-.61-1.36-1.36-1.36-1.36.61-1.36,1.36Z"/>
                  <path class="cls-21" d="m112.73,235.62c0,.96.78,1.74,1.74,1.74.08,0,.15-.01.23-.02l4.72,8,2.49,1.12c.35.16.74-.15.67-.53l-.51-2.68-.03-.03-6.55-6.25c.53-.3.74-.69.74-1.34,0-.91-.7-1.65-1.59-1.73l1.11-8.7-.77-2.05c-.13-.35-.62-.36-.77-.02l-.86,1.99v.04s.8,8.69.8,8.69c-.87.1-1.4.87-1.4,1.77Z"/>
                  <path class="cls-53" d="m114.57,223.1l.63,1.67c.02.06.03.12.02.19l-1.13,8.85-.97-8.91c0-.07,0-.13.03-.2l.69-1.61c.14-.32.6-.31.72.02Z"/>
                  <path class="cls-53" d="m122.36,245.8l-2.11-.94c-.09-.04-.16-.1-.21-.19l-5.13-8.68,7.5,6.78c.07.07.12.16.14.25l.43,2.26c.07.37-.3.66-.64.51Z"/>
                  <g>
                    <circle class="cls-30" cx="114.18" cy="235.26" r="1.74"/>
                    <circle class="cls-53" cx="114.18" cy="235.26" r="1.52"/>
                  </g>
                </g>
                <g>
                  <g>
                    <path class="cls-28" d="m90.45,210.54s9.49.27,4.47,11.1c-5.03,10.83-4.47-11.1-4.47-11.1Z"/>
                    <path class="cls-56" d="m93.1,214.48s2.56,1.57,2.52,10.04c0,.29,1.04,2.8,1.13,3.09.36,1.14-.36,1.21-1.33,1.69-.39,6.39-1.35,6.27-2.19,6.84-.96.64-8.31-.87-13.03-3.21-4.72-2.34-6.32-9.32-4.33-13.6,1.99-4.28,11.71-8.54,17.22-4.85Z"/>
                    <path class="cls-28" d="m71.86,220.47c-.76,4.02,1.21,10.15,9.08,12.81,0,0,.7-2.42,1.2-4.8.5-2.38,7.18-5.1,10.07-7.69.14-.13.28-.26.41-.39,2.06-2.17,1.95-5.57.07-7.89-1.62-2-5.21-5.31-11.63-3.13-5.73,1.94-8.27,6.13-9.21,11.09Z"/>
                    <path class="cls-56" d="m90.83,229.4c-1.24,1.34-1.47,4.06-1.37,6.65.03.44.06.88.08,1.31.22,2.66.71,4.87.71,4.87l-9.08-.23c.34-3.28-.22-8.75-.22-8.75,0,0,12.81-7.04,9.88-3.86Z"/>
                    <path class="cls-59" d="m89.55,237.36c-3.35-1.16-6.02-3.05-6.02-3.05,2.54.83,5.94,1.74,5.94,1.74.03.44.06.88.08,1.31Z"/>
                  </g>
                  <g>
                    <path class="cls-47" d="m96.02,301.75l-14.2-15.31s-8.6,9.09-7.01,19.08c.78,4.91,2.21,7.47,2.68,9.81.44,2.19,1.55,32.53.93,34.67-.62,2.13-3.93,7.91-5.69,14.19-2.12,7.56-4.28,18.51-6.01,25.05-1.73,6.54,1.11,15.27,1.73,13.06,5.25-18.88,19-40.61,21.24-50.09,2.25-9.49,3.97-27.15,6.32-50.46Z"/>
                    <path class="cls-47" d="m72.77,388.59s-4.35,12.35-4,13.92c.21.96,1.18,4.19,1.4,4.65.09.18,3.21,2.66,1.13,2.61-2.04-.05-6.89-6.5-7.61-6.99-1.2-.81-1.68-2.07-1.43-3.17.43-1.9,1.7-3.35,2.64-4.68.94-1.33,1.69-5.1,1.69-5.1l6.18-1.24Z"/>
                    <path class="cls-28" d="m74.06,410.32c-.81-1.24-3.36-2.68-3.36-2.68h0c-.38-.49-.7-.8-.54-.49.27.52-1.12.79-1.8.23-2.38-1.91-3.06-4.75-4.23-6.1-1.67-1.92-.5-4.45-.32-4.88-.55-.04-2.82,1.09-3.42,1.53-.55.4-1.57,1.38-1.81,2.02-.16.45-1.02,2.73-1.63,3.72l2.25,1.79,2.18-1.98.6.64c.6.64,1.06,1.73,1.16,2.38.04.28.29,1.04.57,1.76.33.9.92,1.7,1.66,2.31,0,0,.47.38.96.79.72.59,1.62.91,2.55.91h3.87s0,0,0,0h.59c.61,0,1.13-.52,1.04-1.13-.04-.24-.14-.52-.34-.83Z"/>
                  </g>
                  <g>
                    <path class="cls-47" d="m106.87,408.42c-.31-.41-3.94-1.34-5.6-2.22-1.58-.84-3.38-3.23-3.68-4.2-.3-.97.21-5.72.44-7.71,1.58-13.71,6.43-32.91,7.52-40.92,1.9-13.92,1.38-28.52-1.97-51.44l-18.65-17.18s-6.55,9.92-5.57,20.06c.57,5.88,5.29,7.2,5.9,9.53.61,2.32,9.46,39.66,9.46,39.66,0,0-3.06,7.62-3.97,16.2-.78,7.32,1.28,15.56,1.13,24.04-.08,1.65-.15,5.62-.74,6.83-.73,1.48-2.41,3.15-2.51,5.1-.06,1.13.66,2.27,2.04,2.84,1.38.57,2.24-.18,2.73-.16,2.83.14,3.44,2.15,8.32,2.59,1.5.13,3.76-.5,5.02-1.58.49-.42.44-1.04.13-1.45Z"/>
                    <path class="cls-28" d="m107.13,410.18c-.18.35-.52.74-1.01,1.12-.89.68-2.02.98-3.14.98h-2.39c-.97,0-1.92-.25-2.76-.74-.67-.39-1.35-.82-1.55-1-.49-.45-1.54-.99-2.41-1.1-.87-.11-1.54-.03-1.54-.03l-.17,2.88h-3.29c.1-.99-.68-3.67-.84-4.12-.22-.66.07-1.86.23-2.52.19-.73,1.66-3.02,2.12-3.34.13.45.83,3.15,3.35,3.57,1.75.3,4.08,2.08,7.13,2.04.88,0,1.79-1.08,1.25-1.32-.54-.23.97.03,1.93.38.96.35,2.62,1.26,3.1,1.53.33.19.29,1.07-.03,1.67Z"/>
                  </g>
                  <path class="cls-56" d="m66.47,265.35s.96,4.91,1.56,6.94c.6,2.02,3.57,14.88,6.39,14.65,2.81-.22,18.23-13.1,18.23-13.1l-2.18-4.37-13.57,6.47s-1.23-14.69-2.3-18.19l-8.12,7.59Z"/>
                  <path class="cls-59" d="m70.39,265.89c1.44,5.08,4.2,12.9,5.26,14.37.47.66,9.57-2.63,9.6-6.16l-9.43-10.69-5.42,2.48Z"/>
                  <path class="cls-31" d="m78.97,242.27s-4.68.15-8.24,2.8c-5.88,4.37-4.48,20.89-4.48,20.89,0,0-.29.86,3.62.64,3.91-.22,7.04-1.33,7.04-1.33l-1.13-13.24,3.2-9.76Z"/>
                  <path class="cls-33" d="m69.19,252.27s-.49,9.5,1.23,14.29c1.7-.03,3.19-.42,3.19-.42l-4.41-13.88Z"/>
                  <path class="cls-31" d="m78.78,243.16c.16-1.08.45-2.33,1.45-2.76.28-.12.58-.15.88-.19,3.07-.34,2.71-.49,5.79-.44,1.28.02,2.6.09,3.74.66,1.79.89,2.77,2.82,3.64,4.63l-15.51-1.9Z"/>
                  <g class="cls-37">
                    <path class="cls-31" d="m78.78,243.16c.16-1.08.45-2.33,1.45-2.76.28-.12.58-.15.88-.19,3.07-.34,2.71-.49,5.79-.44,1.28.02,2.6.09,3.74.66,1.79.89,2.77,2.82,3.64,4.63l-15.51-1.9Z"/>
                  </g>
                  <path class="cls-7" d="m66.63,387.71c1.2-5.29,4.27-18.93,6.46-24.72,2.19-5.79,5.22-12.03,5.33-12.98.09-.79-.71-6.65-.97-8.54-.03-.04-.05-.09-.04-.13.03-.65-3.19-24.72-4.25-28.37-.39-1.33-2.29-5.72-1.93-12.31.37-6.59,5.61-14.45,7.04-15.88l24.26-.4s4.18,9.89,4.59,16.01c.84,12.89-.45,40.03-.45,40.03,0,0-.02,0-.05.02-.04,1.89-.19,6.45-.76,10.57-.73,5.35-8.17,49.05-8.17,49.05,0,0-3.69.59-6.61-.73,0,0,.08-.47.05-.94.28-5.27-2.11-22.03,0-32.29,2.11-10.26,2.96-12.46,2.96-12.46l-2.31-11.2c-.03-.19-.08-.65-.15-.65-.28,2.64-.9,7.92-1.65,10.72-1.11,4.1-11.7,27.12-15.91,37.03-1.44,3.39-2.74,7.19-2.74,7.19,0,0-5.05-.58-6.49-2.81,0,0,.73-1.48,1.8-6.2Z"/>
                  <path class="cls-31" d="m102.18,280.51c-.85-1.67-1.6-8.73-1.3-10.53.31-1.93,2.02-2.97,2.79-7.27.99-5.54-1.28-9.84-2.55-11.68-1.79-2.61-4.26-7.9-4.77-8.05-7.49-2.28-8.71-1.19-13.75-.97-2.49.11-4.09.21-6.54.75-2.71.6-5.96,1.5-6.52,5.18-.86,5.69-.14,11.44,1.59,16.83,1.15,3.57,7.99,15.94,6.29,18.34-.39.55-1.36,1.59-1.47,2.27-.43,2.5,3.61,3.11,7.64,3.58,3.67.42,7.47.21,11.6-.07,11.38-.77,7.34-7.68,6.99-8.37Z"/>
                  <path class="cls-28" d="m70.63,250.83c4.31,2.59,9.62,2.29,13.3,1.59-.17-2.94.08-8.95.08-8.95.03,2.15.97,7.36,1.21,8.67,1.92-.45,3.16-.94,3.16-.94,0,0-2.9-14.24-2.9-20.5.01-5.38,5.68-9.08,5.68-9.08l-9.6-12.41s-7.58,2.14-9.7,11.26c-1.07,4.54-1.23,30.36-1.23,30.36Z"/>
                  <path class="cls-17" d="m79.62,306.38c.28,1.23,1.16,4.37,3.49,7.43l8.2,30.77s.15-1.29.32-2.8c-2.66-11.19-5.97-25.95-6.36-27.42-.55-2.11-4.48-3.38-5.64-7.97Z"/>
                  <g>
                    <path class="cls-56" d="m99.26,261.38s11.28,18.1,15.28,18.1c2.91,0,19.18-19.43,19.18-19.43l-5.51-1.48-13.3,9.16-8.07-13.29-7.57,6.94Z"/>
                    <g>
                      <path class="cls-56" d="m140.16,253.28c.02-.34,0-.68.05-1.02.12-.73.62-1.36.79-2.08.14-.57.07-1.16.1-1.74.04-.66.45-1.77-.09-1.85.11-.42.27-.89.36-1.31.07-.32.05-.93-.32-.88-.55.07-1.15.81-1.5,1.15-.47.45-1.18,1.64-1.59,2.14-.93,1.13-2.03,1.61-2.03,1.61,0,0,.26-.47.06-.7-.31-.36-1.31.28-2.41.44-.57.08-1.96,1.79-2.42,2.28-.46.49-.9,3.51-1.03,4.13-.34,1.64-2.4,3.51-2.4,3.51,0,0,4.71,2.33,4.74,2.34.11.05.63-.63.7-.71.29-.33.66-.69,1.07-.86,1.46-1.43,3.62-2.12,4.88-3.78.57-.76.98-1.66,1.04-2.61,0-.02,0-.03,0-.05Z"/>
                      <path class="cls-59" d="m135.94,249.29c-.74.75-1.4.88-2.06,1.23-.51.27-.53.53-1.09.8.81.16.8-.35,2.03-.8.57-.21,1.16-.45,1.41-1,.09-.19-.12-.36-.29-.23h0Z"/>
                    </g>
                  </g>
                  <path class="cls-31" d="m89.38,241.58c2.4.12,10.1.65,14.83,7.6,2.65,3.89,5.54,8.47,6.85,12.08-.63,2.15-4.67,6.51-8.39,6.47-.19-.14-5.66-6.85-6.71-12.33l-6.58-13.82Z"/>
                </g>
              </g>
            </g>
            <g>
              <g>
                <polyline class="cls-58" points="64.18 209.49 69.41 212.28 66.8 205.48"/>
                <circle class="cls-58" cx="59" cy="200.79" r="11.06"/>
              </g>
              <g>
                <path class="cls-2" d="m58.36,194.54c2.23-.2,4.21,1.46,4.4,3.69.06.65-.05,1.3-.33,1.94l-.38.95-1.35,3.5-1.43.13-1.43.13-1.92-3.21-.57-.87c-.38-.58-.61-1.21-.66-1.85-.2-2.23,1.46-4.21,3.69-4.4m-.06-.62c-2.58.23-4.48,2.5-4.25,5.08.07.8.35,1.51.76,2.14l2.69,4.39,1.82-.16,1.82-.16,1.87-4.8c.29-.69.45-1.44.38-2.24-.23-2.58-2.5-4.48-5.08-4.25h0Z"/>
                <path class="cls-2" d="m59.62,208.84h0c-1.01.09-1.9-.65-1.98-1.66l-.12-1.33,3.65-.32.12,1.33c.09,1.01-.65,1.9-1.66,1.98Z"/>
                <path class="cls-2" d="m56.78,199.64c-.16,0-.3-.12-.31-.28-.02-.17.11-.32.28-.34l3.96-.35c.17-.01.32.11.34.28.02.17-.11.32-.28.34l-3.96.35s-.02,0-.03,0Z"/>
                <path class="cls-2" d="m59.29,205.35c-.16,0-.3-.12-.31-.28l-.52-5.89c-.02-.17.11-.32.28-.34.17-.02.32.11.34.28l.52,5.89c.02.17-.11.32-.28.34,0,0-.02,0-.03,0Z"/>
              </g>
            </g>
          </g>
          <g>
            <g>
              <g>
                <g>
                  <path class="cls-53" d="m360.11,340.69l3.95,3.96s4.89-3.5,4.87-4.26c-.02-.75-3.57-4.6-4.56-4.57-.99.03-4.26,4.87-4.26,4.87Z"/>
                  <path class="cls-53" d="m344.14,340.69l-3.95,3.96s-4.89-3.5-4.87-4.26c.02-.75,3.57-4.6,4.56-4.57.99.03,4.26,4.87,4.26,4.87Z"/>
                </g>
                <rect class="cls-50" x="350.15" y="333.31" width="3.95" height="3.36" transform="translate(704.25 669.97) rotate(180)"/>
                <circle class="cls-53" cx="352.12" cy="353.76" r="18.13" transform="translate(-71.38 89.59) rotate(-13.18)"/>
                <path class="cls-22" d="m368.79,354.53c0,6.67-3.59,12.49-8.95,15.64,6.15-2.9,10.41-9.15,10.41-16.41,0-10.01-8.11-18.12-18.12-18.12-3.34,0-6.48.91-9.17,2.49,2.34-1.1,4.95-1.71,7.71-1.71,10.01,0,18.13,8.11,18.13,18.12Z"/>
                <path class="cls-19" d="m334,353.76c0,10.01,8.11,18.13,18.12,18.13,3.91,0,7.52-1.24,10.48-3.34-2.54,1.3-5.43,2.04-8.51,2.04-10.01,0-18.12-7.8-18.12-17.42s8.11-17.42,18.12-17.42c-.65-.07-1.31-.11-1.98-.11-10.01,0-18.12,8.11-18.12,18.12Z"/>
                <circle class="cls-50" cx="352.12" cy="353.76" r="13.53"/>
                <circle class="cls-45" cx="352.12" cy="353.76" r="12.4"/>
                <path class="cls-53" d="m349.36,334.34h5.59s.98-2.38.43-2.59c-.55-.21-5.77-.29-6.46,0-.68.29.43,2.59.43,2.59Z"/>
                <rect class="cls-50" x="349.61" y="344.63" width="1.41" height="10.32" rx=".45" ry=".45" transform="translate(809.31 535.26) rotate(157.05)"/>
                <circle class="cls-50" cx="352.12" cy="353.76" r="1.97"/>
                <path class="cls-19" d="m353.42,369.75c.43,0,.86-.02,1.28.11.03,0,.03.05,0,.06-.42.13-.84.1-1.28.11-.17,0-.17-.27,0-.27Zm-1.91.01c.25.08.49.13.74.06.03,0,.03-.05,0-.06-.22-.07-.44-.12-.65-.22-.16-.08-.26.16-.09.22Zm-11.9-25.03c.23-.48.5-.93.84-1.34.14-.18-.1-.43-.26-.26-.37.42-.69.88-.94,1.38-.13.24.25.46.36.21Zm-1.61,2.51c-.05.28.39.41.44.12.05-.31.12-.62.19-.92.05-.22.21-.47.17-.7,0,0-.01-.02-.02-.01-.23.08-.35.37-.46.58-.17.3-.25.59-.31.93Zm6.27-6.98c.73-.51,1.45-1.03,2.24-1.47.23-.13.07-.54-.19-.44-.85.33-1.7.71-2.45,1.23-.41.29-.02.97.39.68Z"/>
              </g>
              <g>
                <path class="cls-43" d="m301.71,386.8c-2.06-4.04-2.61-8.94-.79-13.19,1.05-2.46,2.53-4.89,4.67-6.55,1.87-1.45,4.07-2.48,6.35-3.09,3.93-1.04,8.29-.7,11.8,1.36,2.93,1.72,5.07,4.5,6.48,7.55,1.38,2.97,1.96,6.66,4.92,8.58.85.55,2.25.77,2.67,1.79.5,1.21-.41,2.42-.89,3.47-.57,1.25-1.14,2.51-1.71,3.76-.41.9-.8,2.45-1.88,2.78-1.04.37-2.14-.53-3.12-.8-2.56-.71-5.34.29-7.68,1.32-2.68,1.17-7.07.56-10.01.31-5.45-.48-8.34-2.45-10.8-7.29Z"/>
                <path class="cls-41" d="m337.15,387.93s-8.26-4.08-12.21-6.31c-1.05-.59-2.13-1.18-3.57-2.46-.93-.82-2.8-2.77-1.6-4.06,1.42-1.52,3.09.96,3.08,2.34-.01,1.14-.99,2.81-1.93,3.48-1.66,1.17-4.21.88-5.79-.1-1.21-.75-.53-2.52.81-2.43,1.28.08,4.89,2.78,4.06,4.95-.44,1.14-1.37,2.04-2.46,2.58-1.98.96-4.54-1.54-1.76-2.43,1.97-.63,4.5.05,6.35.77,5.07,1.97,8.99,3.65,14.02,5.71"/>
                <rect class="cls-31" x="331.86" y="388.13" width="9.33" height=".92" transform="translate(828.73 240.28) rotate(114.12)"/>
                <path class="cls-2" d="m337.75,393.92c-.11-.23-.43.56-.66.65l-.11-.56c-.23.08-.49.55-.61.33l-.07-.13c-.12-.23-.43-.35-.66-.25-.23.1-.53-.01-.65-.24l-.2-.36c-.07-.13-.08-.29-.02-.43l3.79-8.46c.06-.14.19-.24.33-.27l.41-.09c.25-.06.53.09.61.33.08.24.37.39.62.33l.15-.04c.24-.06.52.07.61.3l.03.08c.1.23.38.37.62.3l.11-.03c.25-.07.54.07.63.31l.02.05c.1.26.1.53,0,.77l-3.41,7.61c-.11.24-.12-.31-.38-.21l-.46-.98c-.24.09-.29,1.43-.41,1.2l-.31-.18Z"/>
                <g>
                  <path class="cls-31" d="m335.89,393.64s-.04,0-.06-.01c-.08-.03-.11-.12-.08-.2l1.77-3.94c.03-.08.12-.11.2-.08.08.03.11.12.08.2l-1.77,3.94c-.03.06-.08.09-.14.09Z"/>
                  <path class="cls-31" d="m338.44,387.94s-.04,0-.06-.01c-.08-.03-.11-.12-.08-.2l.98-2.19c.03-.08.12-.11.2-.08.08.03.11.12.08.2l-.98,2.19c-.03.06-.08.09-.14.09Z"/>
                  <path class="cls-31" d="m338.08,391.33s-.04,0-.06-.01c-.08-.03-.11-.12-.08-.2l2.56-5.72c.03-.08.13-.11.2-.08.08.03.11.12.08.2l-2.56,5.72c-.03.06-.08.09-.14.09Z"/>
                  <path class="cls-31" d="m336.85,394.09s-.04,0-.06-.01c-.08-.03-.11-.12-.08-.2l.76-1.69c.03-.08.12-.11.2-.08.08.03.11.12.08.2l-.76,1.69c-.03.06-.08.09-.14.09Z"/>
                  <path class="cls-31" d="m339.98,389.68s-.04,0-.06-.01c-.08-.03-.11-.12-.08-.2l1.37-3.06c.03-.08.12-.11.2-.08.08.03.11.12.08.2l-1.37,3.06c-.03.06-.08.09-.14.09Z"/>
                  <path class="cls-31" d="m338.54,392.91s-.04,0-.06-.01c-.08-.03-.11-.12-.08-.2l.55-1.23c.03-.08.12-.11.2-.08.08.03.11.12.08.2l-.55,1.23c-.03.06-.08.09-.14.09Z"/>
                  <path class="cls-31" d="m338,388.93s-.04,0-.06-.01c-.08-.03-.11-.12-.08-.2l.2-.44c.03-.08.12-.11.2-.08.08.03.11.12.08.2l-.2.44c-.03.06-.08.09-.14.09Z"/>
                </g>
                <g class="cls-11">
                  <path class="cls-43" d="m301.71,386.8c-2.06-4.04-2.61-8.94-.79-13.19.21-.49.43-.97.67-1.45-2.61,6.94.64,15.43,7.81,18.37,6.02,2.47,11.56,1.47,16.85-3.37,1.11-1.01,2.34-1.54,3.87-1.1,1.41.41,2.57,1.43,4.02,1.75.22.05.45.08.66,0,.2-.07.35-.22.5-.37,1.19-1.24,1.96-2.81,2.36-4.49.06.09.11.18.15.28.5,1.21-.41,2.42-.89,3.47-.57,1.25-1.14,2.51-1.71,3.76-.41.9-.8,2.45-1.88,2.78-1.04.37-2.14-.53-3.12-.8-2.56-.71-5.34.29-7.68,1.32-2.68,1.17-7.07.56-10.01.31-5.45-.48-8.34-2.45-10.8-7.29Z"/>
                </g>
              </g>
              <path class="cls-26" d="m294.76,412.2c0,2.85,42.52,5.15,94.98,5.15s94.98-2.31,94.98-5.15-42.52-5.15-94.98-5.15-94.98,2.31-94.98,5.15Z"/>
              <g>
                <path class="cls-47" d="m413.82,397.44s-.28,7.32.1,9c.3,1.32,4.4,1.45,4.9.75.5-.7,1.14-9.2,1.14-9.2"/>
                <path class="cls-44" d="m419.96,408.38c0,.93.46,3.7-.67,3.7h-11.97c-3.06,0-4.8-.39-4.88-.93-.32-2.2,10.38-5.91,11.4-5.9.05,0,.08.01.13.03.15.05.49.22.75.67.71,1.22,2.29,1.77,3.57,1.16.27-.13.51-.29.72-.51,0,0,.96.38.96,1.79Z"/>
              </g>
              <g>
                <path class="cls-47" d="m458.11,399.09s1.29,3.47,1.85,4.63c.56,1.16,4.4-.27,4.6-1.06.2-.8-2.92-6.76-2.92-6.76"/>
                <path class="cls-44" d="m466.33,403.38c1.21,2.42.92,3.55.54,3.78l-3.21,1.93s-.01,0-.02.01c-.11.05-1.47.75-2.52,1.4-.91.57-2.52,1.26-3.57,1.5-3.28.76-5.82.39-6.08-.06-1.05-1.83,7.07-8.86,8-9.24.05-.02.08-.02.13-.02.16,0,.54.03.93.36.8.66,1.9.88,2.79.33.5-.31.96-.74,1.19-1.3,0,0,1.22.12,1.82,1.32Z"/>
              </g>
              <g>
                <path class="cls-7" d="m462.84,396.57c.09.21.01.46-.17.59-2.92,2.1-4.97,2.31-4.97,2.31,0,0,0-.02-.02-.02-.68-1.07-21.98-34.71-26.07-41.24-.08-.14-.17-.27-.24-.39-.02-.02-.04-.03-.04-.07-.29-.46-.51-.9-.66-1.3-.03-.08-.07-.17-.1-.23-.11-.27-.19-.52-.22-.7-.03-.14-.06-.27-.08-.42,0-.02-.02-.04-.02-.07-.57-2.9-1.93-7.88-3.58-13.67-.94-3.28-1.96-6.82-2.98-10.4-.81-2.8-1.62-5.59-2.36-8.23l-5.95-23.13c-.08-.3.14-.6.45-.62l4.77-.32c6.06-.41,13.45-3.46,15.02-4.14.19-.08.41-.03.55.11,6.94,6.94,5.62,15.65,4.78,20.01,0,0,0,.02,0,.03-.38,2-.49,4.05-.34,6.08.48,6.27,1.41,17.97,1.5,26.1,0,0,0,.01,0,.02.02.23.35,5.07,4.98,10.82.88.95,1.72,1.98,2.46,3.11,6.91,10.43,9.46,26.64,13.3,35.78Z"/>
                <path class="cls-17" d="m457.67,399.45c-.68-1.07-21.98-34.71-26.07-41.24-.08-.14-.17-.27-.24-.39-.02-.02-.04-.03-.04-.07-.29-.46-.51-.9-.66-1.3-.03-.08-.07-.17-.1-.23-.11-.27-.19-.52-.22-.7-.03-.14-.06-.27-.08-.42,0-.02-.02-.04-.02-.07-.57-2.88-1.91-7.79-3.54-13.52-.03-.1-.03-.21.01-.31l9.51-25.51c.07-.19.26-.32.46-.32h2.5c.34,0,.58.33.47.65-.85,2.56-3.98,12.11-5.38,16.77-1.62,5.39-2.06,13.84-2.21,16.93-.32,6.79,8.03,18.32,10.42,22.52,2.55,4.5,14.24,25.33,15.19,27.21Z"/>
              </g>
              <path class="cls-7" d="m435.84,319.55c.71-.33,3.58-1.95,5.4-7.08.08-.22,0-.47-.2-.59-2.77-1.76-22.07-13.82-26.69-12.35-1.42.46-4.1,45.35-4.08,46.31.01.47-.02,5.34,0,5.9.3,7.65,2.99,45.71,3.28,49.93.02.23.18.41.41.45.74.12,2.56.36,5.24.35.19-.16.31-.27.5-.43,1.21-10.21,6.47-29.44,3.82-41.49-.03-.15-.05-.3-.08-.45-.02-.24-.05-.55-.09-.95-.64-5.33-.66-3.77.8-10.49,0-.03.01-.05.02-.07,3.26-8.4,9.41-23.71,11.43-28.78.05-.12.12-.2.24-.25Z"/>
              <path class="cls-31" d="m443.86,267.32c-.02,2.56-.18,5.11-.38,7.57-.27,3.01-.64,5.88-1.02,8.48-.9,6.2-1.89,10.8-1.79,11.91.07.68.32,1.35.63,1.98.42.91-.3,1.53-.3,1.53-.41.18-.84.34-1.28.51-10.81,3.95-26.73.59-26.73.59-.66.05-1.32-.47-1.06-1.72.2-.94,1.19-5.54,1.16-6.5-.04-.9.22-3.94.73-8.16.18-1.5.39-3.13.64-4.88.2-1.48.44-3.03.68-4.64.3-1.87.54-3.7.79-5.48.27-2.02.53-3.98.81-5.91.52-3.34,1.11-6.55,2.01-9.66.73-2.57,1.68-5.08,2.94-7.52,3.01-5.8,10.31-6.71,11.57-6.82.12-.01.24.01.33.08,5.44,3.64,8.22,9.89,9.44,16.98.65,3.75.86,7.73.81,11.66Z"/>
              <path class="cls-29" d="m433.03,252.13c-.43,5.4-2.44,22.81-10.75,30.54-.04.03-.07.06-.11.08-.43.23-3.01,1.47-7.85.83-.27-.04-.47-.28-.44-.55.32-2.63.74-5.67,1.24-8.91.01-.08.05-.16.1-.23l2.08-14.59s2.12-7.06,4.96-9.91c1.8-1.8,9.88,2.4,9.88,2.4.3-.39.93-.16.89.33Z"/>
              <path class="cls-59" d="m391.99,305.71s-2.22,1.03-3.01,2.61h3.18"/>
              <polygon class="cls-1" points="372.43 359.22 372.47 392.3 338.71 392.34 338.71 359.26 372.43 359.22"/>
              <polygon class="cls-5" points="338.71 359.22 338.71 392.31 330.84 392.31 330.81 359.23 338.71 359.22"/>
              <polygon class="cls-8" points="376.75 367.59 342.98 367.59 338.71 359.22 372.47 359.22 376.75 367.59"/>
              <path class="cls-48" d="m304.93,394.58h78.32c2.53,0,4.59-2.06,4.59-4.59v-78.73c0-.62.51-1.13,1.13-1.13h13.43c.65,0,1.18-.53,1.18-1.18s-.53-1.18-1.18-1.18h-13.43c-1.93,0-3.49,1.57-3.49,3.49v78.73c0,1.23-1,2.23-2.23,2.23h-78.32c-.65,0-1.18.53-1.18,1.18s.53,1.18,1.18,1.18Z"/>
              <circle class="cls-15" cx="372.95" cy="403.58" r="8.5" transform="translate(-130.2 624.51) rotate(-70.96)"/>
              <circle class="cls-3" cx="372.95" cy="403.58" r="4.36"/>
              <circle class="cls-15" cx="318.1" cy="403.58" r="8.5" transform="translate(-176.79 541.96) rotate(-67.38)"/>
              <path class="cls-3" d="m313.74,403.58c0,2.41,1.95,4.36,4.36,4.36s4.36-1.95,4.36-4.36-1.95-4.36-4.36-4.36-4.36,1.95-4.36,4.36Z"/>
              <g>
                <path class="cls-47" d="m431.12,255.65c.41-2.15.61-3.73.57-4.3-.47-4.39-5.11-3.59-5.95-3.06-.97.59-3.4,2.49-6.13,10.58-1.88,5.57-3,9.87-3.7,12.55-.22.8-.53,1.77-.78,2.59l5.59,8.02c4.59-2.88,8.9-18.5,10.4-26.38Z"/>
                <path class="cls-47" d="m412.1,280.37c-2.45,3.56-11.41,17.42-15.45,22.44l3.1,2.44c.13-.21.26-.44.42-.66.01-.02,1.37-.91,1.4-.93,2.71-2.97,5.74-5.48,10.08-9.89,4.49-4.58,8.64-9.38,10.32-12.33.19-.34,2.65-4.28,2.68-4.73l-8.95-4.5c.13.18-1.81,5.59-3.59,8.17Z"/>
              </g>
              <path class="cls-47" d="m397.86,301.23s-1.44,1.97-2.4,2.46c-.95.49-2.36,1.53-3.31,1.92-.95.39-2.84,4.93-2.24,5.49.59.56,4.24,1.51,6.43.44,2.09-1.03,1.31-2.43,1.83-3.28,1.28-2.12,3.38-4.61,3.38-4.61l-.72-1.43-2.97-1Z"/>
              <path class="cls-47" d="m433.72,238.68c-.22.39-.49.75-.81,1.05,0,0-.02.02-.02.02-1.94,1.88-5.39,2.23-6.87,2.29-.33.01-.57-.28-.5-.6.12-.62.17-1.73-.36-3.45-.08-.27-.39-.41-.65-.31-2.5.93-4.88,1.38-6.39.79-.08-.03-.15-.08-.21-.15-1.06-1.14-1.96-2.52-2.72-4.04-.09-.19-.29-.3-.5-.27-.7.1-1.7.12-1.91-.46-.27-.75.24-3.4.45-4.39,0-.03-.02-.07-.03-.11.04-.73.26-1.63.02-2.52-.06-.24-.58-.52-.71-.71-1.09-1.71-1.56-4.04-1.7-4.86-.03-.19.04-.36.19-.47,1.07-.77,5.35-3.84,5.69-3.91.4-.09,10.24-1.9,10.58-1.76.34.14,5.32,5.99,5.97,12.36.25,2.47-.27,4.3-1.05,5.64h0s-.1,4.47,1.52,5.85Z"/>
              <path class="cls-31" d="m418.23,259.98c1.75,2.12,8.72,4.49,11.62,4.69,1.62-4.21,6.91-17.82,1.02-20.18-6.5-2.61-10.41,7.49-12.64,15.5Z"/>
              <path class="cls-12" d="m432.89,239.75c-1.94,1.88-5.39,2.23-6.87,2.29-.33.01-.57-.28-.5-.6.13-.64.17-1.8-.41-3.61-.06-.2,0-.42.16-.55.42-.33,1.25-1.03,1.97-1.84.31-.35.88-.12.86.35l-.21,4.49c-.01.27.18.5.45.52.95.08,3.12.1,4.54-1.05Z"/>
              <path class="cls-50" d="m411.88,223.28c3.57,2.05,9.59.03,11.1.92,1.51.88,2.07,4.61,2.76,4.72.74.12.57-1,.48-2.36-.09-1.36-.31-2.9,2.08-2.45,1.06.19,1.68,3.26,2.44,5.66.58,1.82,1.04,2.66,1.37,3.03.22.25.63.19.79-.09,3.85-6.71,3.08-21.55-7.15-21.45-.11,0-.21-.03-.3-.1-.58-.46-3.11-2.26-6.31-1.92-.02,0-.05,0-.07,0-2.91.3-11.54,3.2-13.04,6.08-1.76,3.4,4,6.89,5.84,7.95Z"/>
            </g>
            <g>
              <g class="cls-18">
                <g>
                  <polyline class="cls-31" points="439.58 207.34 435.24 209.65 437.41 204.02"/>
                  <circle class="cls-31" cx="443.87" cy="200.13" r="9.17"/>
                </g>
              </g>
              <path class="cls-4" d="m448.95,201.07c.1-.38.16-.78.16-1.19,0-.38-.05-.75-.13-1.11l-.84.09c-.1-.43-.27-.84-.49-1.21l.67-.53c-.2-.34-.44-.66-.73-.95-.11-.11-.23-.22-.35-.32-.03-.03-.06-.05-.1-.08-.14-.11-.28-.2-.43-.29l-.53.67s-.09-.05-.13-.08c-.05-.03-.1-.06-.15-.08-.29-.15-.6-.27-.92-.36l.09-.85c-.38-.1-.78-.16-1.19-.16-.38,0-.75.05-1.11.13l.09.85c-.43.1-.84.27-1.21.48l-.53-.67c-.34.2-.66.44-.95.73-.27.27-.5.57-.69.88l.66.53c-.23.37-.4.77-.51,1.2l-.84-.09c-.1.38-.16.78-.16,1.19,0,.38.05.75.13,1.11l.84-.09c.1.43.27.84.49,1.21l-.66.53c.2.34.44.66.73.95.27.27.57.5.88.69l.53-.66c.37.23.77.4,1.2.52l-.09.84c.38.1.78.16,1.19.16.38,0,.75-.05,1.11-.13l-.09-.83c.43-.1.84-.27,1.21-.49l.53.66c.34-.2.66-.44.95-.73.27-.27.5-.57.69-.88l-.66-.53c.23-.37.4-.77.51-1.2l.84.09Zm-2.39-1.1c-.04,1.41-1.19,2.56-2.6,2.6-1.56.05-2.83-1.22-2.78-2.78.04-1.41,1.19-2.56,2.6-2.6,1.56-.05,2.83,1.22,2.78,2.78Z"/>
            </g>
          </g>
          <g>
            <g>
              <path class="cls-50" d="m194.24,20.68c-.98.4-1.73,1.33-1.91,2.37s.22,2.17,1.01,2.87c-.91.03-1.52,1.07-1.41,1.98.11.91.72,1.66,1.35,2.33.72.76,1.59,1.52,2.64,1.54.76.01,1.47-.37,2.03-.88.4-.37.74-.81.94-1.31.23-.57.29-1.19.34-1.81.18-2.16.36-4.31.55-6.47.04-.44.05-.94-.25-1.25"/>
              <path class="cls-47" d="m212.82,34.92c.14,2.8-.06,7.68.75,8.41.8.72,6.45.7,6.45.7,0,0-12.32,11.62-13.15,10.98-.83-.64-11.78-9.57-9.32-10.03,2.46-.46,4.87-.36,4.8-1.64-.07-1.27-.14-2.55-.21-3.82"/>
              <g class="cls-11">
                <path class="cls-47" d="m212.82,34.92c.14,2.8-.06,7.68.75,8.41.8.72,6.45.7,6.45.7,0,0-12.32,11.62-13.15,10.98-.83-.64-11.78-9.57-9.32-10.03,2.46-.46,4.87-.36,4.8-1.64-.07-1.27-.14-2.55-.21-3.82"/>
              </g>
              <path class="cls-57" d="m230.81,77.16l-5.53,18.2-1.91,2.09s-16.56,1.88-21.62,2.11c-.22.01-.42.02-.6.02-4.16.09-3.95-2.08-3.95-2.08-.04-.97-.11-2.23-.2-3.64-.35-5.21-.97-12.51-1.65-15.38-.8-3.42-1.16-4.68-1.86-7.92-1.55-7.21-1.48-8.58-3.13-17.48l10.79-8.67s1.12,3.32,5.64,3.37c6.05.08,7.93-4.16,7.93-4.16l14.71,9.78,1.38,23.76Z"/>
              <path class="cls-47" d="m213.02,32.38c-.33,1.41-.75,2.8-1.27,4.15-.95,2.48-2.36,3.37-4.98,3.43-1.84.04-3.69.09-5.53.13-1.42.03-3.18.08-4.32-.91-1.13-.98-1.16-2.64-1.41-4.01-.32-1.75-.58-3.5-.78-5.26-.39-3.45-.56-6.93-.49-10.41,0-.48.02-.96.12-1.42.04-.19.1-.39.24-.52.17-.17.43-.22.66-.26,3.45-.55,6.96-.77,10.46-.67,2.47.07,5.09.36,7.04,1.87,1.97,1.52,2.9,3.99,3.74,6.33.14.38.24.88-.09,1.11"/>
              <g>
                <g>
                  <path class="cls-54" d="m173.5,158.3s.58,3.47,1.04,4.66c.46,1.19,4.36.09,4.61-.67.26-.77-1.23-6.41-1.23-6.41"/>
                  <path class="cls-28" d="m180.51,163.27c.34,1.28.76,3.74.76,3.74l-3.89,1.7-.64-.6s-.97,1.17-2.16,1.72c-.89.41-2.8.94-3.77,1.04-3.4.37-5.9-.27-6.1-.74-.84-1.97,3.67-2.5,4.56-2.73,2.57-.68,4-2.86,4.27-4.28.2-1.03-.06-1.21.52-1.18,0,0,.5-.03.97.46.72.74,1.8,1.08,2.77.64.55-.25,1.07-.62,1.38-1.15,0,0,.99.11,1.33,1.39Z"/>
                </g>
                <g>
                  <path class="cls-7" d="m201.75,99.56l-11.05,13.37c-.44.09-.88.17-1.32.24-2.84.47-5.96.72-9.07.76-3.28.05-6.55-.14-9.48-.53.86,2.47,2.97,5.63,3.77,9.1,2.65,11.46,3.57,26.86,4.25,36.38,0,0-1.28,2.44-5.36.58-6.09-15.05-16.73-45.56-16.63-52.17.02-1.56.86-2.99,2.37-4.29.08-.08.16-.14.24-.21,1.68-1.37,4.11-2.6,7.14-3.67.09-.02.17-.06.26-.09,7.22-2.53,17.71-4.23,29.33-5.11.09,0,.18,0,.27-.02.17-.01.35-.03.53-.04h0c.09,1.42.16,2.67.2,3.64,0,0-.21,2.17,3.95,2.08.18,0,.38-.01.6-.02Z"/>
                  <g class="cls-35">
                    <path class="cls-16" d="m201.75,99.56l-11.05,13.37c-.44.09-.88.17-1.32.24-3.05.52-6.05.76-9.07.76-.33-.63-.63-1.28-.77-1.97-.19-.92-.09-1.88-.25-2.8-.31-1.8-1.61-3.33-3.17-4.27-1.56-.95-3.38-1.39-5.18-1.68-4.06-.65-10.98-.26-11.71-.21h-.06c.1-.07.2-.15.3-.21,2.03-1.45,4.47-2.66,7.14-3.67.09-.02.17-.06.26-.09,9.6-3.55,22.12-4.63,29.33-5.11.09,0,.18,0,.27-.02.18-.01.36-.02.53-.03.09,1.41.16,2.66.2,3.63,0,0-.21,2.17,3.95,2.08.18,0,.38-.01.6-.02Z"/>
                  </g>
                </g>
                <g>
                  <path class="cls-54" d="m183.55,166.32s-.03,3.52.22,4.77c.25,1.25,4.27.85,4.66.14.39-.71-.1-6.53-.1-6.53"/>
                  <path class="cls-28" d="m189.59,172.42c.11,1.32.1,3.81.1,3.81l-4.13.99-.53-.7s-1.15.99-2.43,1.32c-.94.25-2.92.44-3.89.38-3.41-.23-5.76-1.29-5.88-1.79-.49-2.08,4.04-1.82,4.96-1.9,2.65-.22,4.43-2.12,4.95-3.47.37-.98.15-1.2.72-1.07,0,0,.5.06.88.62.58.86,1.59,1.38,2.61,1.11.59-.15,1.16-.42,1.56-.89,0,0,.96.28,1.07,1.6Z"/>
                </g>
                <path class="cls-7" d="m228.14,95.36c1.62,3.77,2.69,10.6,1.06,13.52-1.43,2.56-2.1,4.15-4.54,4.95-10.4,3.45-20.25,2.03-31.69.51,4.85,13.09-2.18,41.14-3.27,53.03-4.4,1.95-6.89-.12-6.89-.12.5-24.2-4.89-58.01-1.63-63.79,1.98-3.52,25.67-8.16,26.14-8.1"/>
              </g>
              <path class="cls-50" d="m209.99,28.14c.2-.83,1.49-.89,2.08-.27.59.62.65,1.56.68,2.41.04,1.06-.48,2.14-1.04,3.04-.56.9-1.39,1.42-2.16.68-.06,1.55,1.18,2.8,2.27,2.87,1.08.07,2.16-.68,2.48-1.72,4.68,1.72,6.16-5.06,6.45-8.45.22-2.66-.66-5.89-2.11-8.12-.79-1.22-1.98-2.23-3.39-2.56-.14-1.72-1.4-3.19-2.9-4.05-1.5-.86-2.85-1.25-4.54-1.59-1.05-.21-3.89.55-4.42,1.62-1.99-1.14-3.76-.04-5.34.14-1.58.19-3.34,1.65-2.66,3.09-2.48-.75-5.17,2.07-4.43,4.55.74,2.48,4.33,3.45,6.32,1.78.73,1.62,2.58,2.54,4.35,2.55,1.78,0,3.48-.75,4.97-1.71-.5.92-.66,2.17-.18,3.24.48,1.07.88,1.86,2.46,1.53,0,0-.14,2.46.42,2.23.56-.23.69-1.28.69-1.28Z"/>
              <path class="cls-57" d="m178.32,89.22c6.31-9.09,9.68-16.26,15.17-25.87l7.66-18.96s-2.58.14-3.08.18c-2.15.17-4.34.45-6.38,1.21-2.93,1.08-5.95,3.07-7.37,5.93-1.27,2.55-2.05,5.32-3.12,7.95-1.2,2.94-2.48,5.85-3.76,8.76-2.55,5.77-5.16,11.52-7.31,17.46"/>
              <polygon class="cls-36" points="192.43 65.23 191.41 59.08 183.85 75.63 186.36 76.23 192.43 65.23"/>
              <path d="m228.72,53.07c.64,11.73.3,23.5-1.06,35.17-.39,3.31-.98,6.61-1.27,9.93-.04.43.64.51.74.1.71-2.84,1.05-5.79,1.41-8.69s.65-5.84.87-8.76c.45-5.9.63-11.81.54-17.72-.05-3.34-.23-6.69-.47-10.02-.04-.49-.8-.5-.77,0h0Z"/>
              <g>
                <rect class="cls-52" x="160.9" y="97.03" width="58.35" height="2.1" transform="translate(380.15 196.17) rotate(180)"/>
                <path class="cls-52" d="m150.49,99.13h46.71l-8.38-27.31c-.46-1.51-1.86-2.54-3.43-2.54h-40.91c-1.57,0-2.69,1.51-2.23,3.01l8.23,26.83Z"/>
                <path class="cls-6" d="m149.9,99.13h46.01l-8.38-27.31c-.46-1.51-1.85-2.54-3.43-2.54h-40.91c-1.57,0-2.69,1.51-2.23,3.01l8.02,26.16c.12.4.49.67.91.67Z"/>
                <path class="cls-52" d="m171.34,84.52c0,2.6-2.11,4.71-4.71,4.71s-4.71-2.11-4.71-4.71,2.11-4.71,4.71-4.71,4.71,2.11,4.71,4.71Z"/>
              </g>
              <g class="cls-37">
                <path class="cls-51" d="m222.42,58.02c-2.41,10.88-3.17,23.42-3.84,31.2-9.02.67-11.55,4.13-19.82,7.81,0,0-6.53-1.08-7.21,1.38-.4,1.42,7.64,2.55,7.64,2.55,7.66.04,26.23-3.55,27.59-3.93,1.37-.38,6.99-28.07,7.15-42.01.02-1.98-.05-4.13-1.28-5.67-.65-.81-1.57-1.37-2.49-1.84-5.39-2.76-9.38-3.51-15.43-3.89"/>
              </g>
              <path class="cls-54" d="m199.89,98.72c-.91-1.14-2.56-1.31-4.02-1.27-1.08.03-2.16.11-3.23.26-.49.07-1.05.18-1.1.71s2.37,0,3.64.37c-2.49.21-4.98.28-7.48.2-.29,0-.59-.02-.86.09-.27.11-.5.36-.48.65.01.23.17.42.34.57.7.63,1.65.87,2.57,1.04,3.81.67,7.82.55,11.36-1"/>
              <path class="cls-57" d="m222.42,58.02c-.2,11.63-1.86,22.19-1.63,33.82-9.02.67-13.61,2.42-21.87,6.1,0,0-.49,1.64.27,3.03.63.23,26.99-.88,29.16-2.88,1.95-1.8,5.42-29.12,5.58-43.05.02-1.98-.05-4.13-1.28-5.67-.65-.81-1.57-1.37-2.49-1.84-5.39-2.76-9.38-3.51-15.43-3.89"/>
              <path class="cls-47" d="m195.85,27.58s-2.78,4.88-2.36,5.51c.43.63,3.7,0,3.7,0"/>
            </g>
            <g>
              <g class="cls-9">
                <g>
                  <polyline class="cls-31" points="181.14 13.41 184.69 15.31 182.92 10.69"/>
                  <path class="cls-31" d="m184.69,7.51c0,4.15-3.36,7.51-7.51,7.51s-7.51-3.36-7.51-7.51,3.36-7.51,7.51-7.51,7.51,3.36,7.51,7.51Z"/>
                </g>
              </g>
              <polyline class="cls-42" points="174.02 6.79 176.3 9.63 180.35 5.39"/>
            </g>
          </g>
        </g>
      </g>
    </g>
  </g>
</svg>