<?xml version="1.0" encoding="UTF-8"?>
<svg id="_레이어_2" data-name="레이어 2" xmlns="http://www.w3.org/2000/svg" viewBox="0 0 446.15 290.67">
  <defs>
    <style>
      .cls-1 {
        fill: #ef677e;
      }

      .cls-2 {
        fill: #ddd;
      }

      .cls-3, .cls-4 {
        fill: #33aa6b;
      }

      .cls-5 {
        fill: #cff0ff;
      }

      .cls-6 {
        fill: #d1d1d1;
      }

      .cls-7 {
        fill: #3c647c;
      }

      .cls-8 {
        fill: #2992aa;
      }

      .cls-9 {
        fill: #e2e2e2;
      }

      .cls-10 {
        fill: #f5f5f5;
      }

      .cls-11 {
        fill: #92e0ff;
      }

      .cls-12 {
        fill: #ed5626;
      }

      .cls-13 {
        fill: #398db7;
      }

      .cls-14 {
        fill: #83bfc9;
      }

      .cls-15 {
        fill: #97c7d3;
      }

      .cls-16 {
        fill: #42abcc;
      }

      .cls-17 {
        fill: #72a9b2;
      }

      .cls-18 {
        fill: #8e8e8e;
      }

      .cls-19 {
        fill: #a3a3a3;
      }

      .cls-20 {
        fill: #79e1f2;
      }

      .cls-4, .cls-21 {
        stroke-width: .16px;
      }

      .cls-4, .cls-21, .cls-22 {
        stroke: #baf7d2;
        stroke-linecap: round;
        stroke-linejoin: round;
      }

      .cls-23 {
        stroke: #edba3a;
        stroke-miterlimit: 10;
      }

      .cls-23, .cls-21, .cls-22 {
        fill: none;
      }

      .cls-23, .cls-22 {
        stroke-width: .27px;
      }

      .cls-24 {
        fill: #ffcf48;
      }

      .cls-25 {
        fill: #aaa;
      }

      .cls-26 {
        fill: #ebebeb;
      }

      .cls-27 {
        fill: #3cbdd3;
      }

      .cls-28 {
        fill: #298ea5;
      }

      .cls-29 {
        fill: #c1c1c1;
      }

      .cls-30 {
        fill: #ccc;
      }

      .cls-31 {
        fill: #50a7c9;
      }

      .cls-32 {
        fill: #efefef;
      }

      .cls-33 {
        fill: #75c7e0;
      }

      .cls-34 {
        fill: #469baf;
      }

      .cls-35 {
        fill: #ed8526;
      }

      .cls-36 {
        fill: #c96420;
      }

      .cls-37 {
        fill: #1e7e8e;
      }

      .cls-38 {
        fill: #b3e1e8;
      }

      .cls-39 {
        fill: #6bc9f7;
      }
    </style>
  </defs>
  <g id="OBJECTS">
    <g>
      <polygon class="cls-13" points="195.85 290.67 0 177.58 250.3 33.04 446.15 146.13 195.85 290.67"/>
      <g>
        <g>
          <polygon class="cls-39" points="195.85 257.62 0 144.53 250.3 0 446.15 113.09 195.85 257.62"/>
          <polygon class="cls-31" points="195.85 257.62 195.85 260.21 0 147.1 0 144.53 195.85 257.62"/>
          <polygon class="cls-11" points="195.85 260.21 446.15 115.67 446.15 113.09 195.85 257.62 195.85 260.21"/>
        </g>
        <g>
          <polygon class="cls-32" points="201.74 236.38 30.81 137.69 242.83 15.27 413.76 113.96 201.74 236.38"/>
          <polygon class="cls-25" points="201.74 236.38 201.74 237.42 30.81 138.73 30.81 137.69 201.74 236.38"/>
          <polygon class="cls-18" points="201.74 237.42 413.76 115 413.76 113.96 201.74 236.38 201.74 237.42"/>
        </g>
        <path class="cls-4" d="m54.61,131.03l52.9-30.67,17.67,10.32c-14.27,5.62-35.16,21.85-34.23,35.2.19,2.72-2.67,4.58-5.03,3.22l-31.3-18.07Z"/>
        <path class="cls-8" d="m339.01,97.44h0v-25.73l-8.37,1.57c-2.98-3.78-6.76-7.12-11.34-9.76h0c-36.31-20.96-81.04-20.96-117.35,0l-76.97,44.44c-2.69,1.55-5.09,3.35-7.23,5.33l-12.31,2.31v24.54h0c-.59,13.75,5.92,27.75,19.53,35.61h0c36.56,21.11,81.6,21.11,118.15,0l76.16-43.97c13.21-7.63,19.77-21,19.7-34.34Z"/>
        <path class="cls-15" d="m338.98,93.37h0v-25.73l-8.37,1.57c-2.98-3.78-6.76-7.12-11.34-9.76h0c-36.31-20.96-81.04-20.96-117.34,0l-76.97,44.44c-2.69,1.55-5.09,3.35-7.23,5.33l-12.31,2.31v24.54h0c-.59,13.75,5.92,27.75,19.53,35.61h0c36.56,21.11,81.6,21.11,118.15,0l76.16-43.97c13.21-7.63,19.77-21,19.7-34.34Z"/>
        <path class="cls-8" d="m105.43,124.6c.48,12.67,7.01,25.13,19.56,32.38h0c36.56,21.11,81.6,21.11,118.15,0l76.28-44.2c11.99-6.93,18.51-18.59,19.56-30.67v7.15c-1.04,12.08-7.56,23.75-19.56,30.67l-76.28,44.2c-36.56,21.11-81.6,21.11-118.15,0h0c-13.66-7.89-20.22-22.02-19.58-35.8l.02-3.72Z"/>
        <path class="cls-24" d="m140.35,84.9l75-43.48c27.51-15.88,61.4-15.88,88.9,0h0c19.91,11.49,19.91,40.23,0,51.72l-74.39,43.13c-27.7,15.99-61.82,15.99-89.52,0h0c-19.77-11.41-19.77-39.95,0-51.36Z"/>
        <path class="cls-23" d="m141.8,87.43l75.23-43.41c26.84-15.5,59.91-15.5,86.74,0h0c19.42,11.21,19.42,39.25,0,50.46l-74.63,43.06c-27.02,15.6-60.32,15.6-87.34,0h0c-19.29-11.14-19.29-38.98,0-50.12Z"/>
        <path class="cls-23" d="m143.56,88.77l73.6-42.47c26.26-15.16,58.61-15.16,84.86,0h0c19,10.97,19,38.4,0,49.37l-73.02,42.13c-26.44,15.26-59.01,15.26-85.45,0h0c-18.87-10.9-18.87-38.14,0-49.03Z"/>
        <path class="cls-23" d="m158.42,92.42l56.13-32.57c24.26-14.01,54.15-14.01,78.41,0h0c17.56,10.14,17.56,35.48,0,45.61l-55.59,32.25c-24.43,14.1-54.52,14.1-78.95,0h0c-17.44-10.07-17.44-35.23,0-45.3Z"/>
        <path class="cls-34" d="m319.3,33.53h0c-36.31-20.96-81.04-20.96-117.34,0l-76.97,44.44c-26.09,15.07-26.09,46.91,0,61.97h0c36.56,21.11,81.6,21.11,118.15,0l76.16-43.97c26.27-15.17,26.27-47.27,0-62.44Zm-15.05,60.91l-74.39,43.13c-27.7,15.99-61.82,15.99-89.52,0h0c-19.77-11.41-19.77-39.95,0-51.36l75-43.48c27.51-15.88,61.4-15.88,88.9,0h0c19.91,11.49,19.91,40.23,0,51.72Z"/>
        <path class="cls-20" d="m161.53,93.87l56.19-32.44c21.76-12.56,48.56-12.56,70.32,0h0c15.75,9.09,15.75,31.82,0,40.91l-55.7,32.16c-21.91,12.65-48.9,12.65-70.81,0h0c-15.64-9.03-15.64-31.6,0-40.63Z"/>
        <path class="cls-20" d="m287.69,102.38l-55.46,32.16c-21.81,12.65-48.69,12.65-70.5,0h0c-7.33-4.25-11.2-11.5-11.64-18.92-.49,8.35,3.39,16.93,11.64,21.71h0c21.81,12.65,48.69,12.65,70.5,0l55.46-32.16c8.3-4.81,12.61-13.35,12.13-21.76-.43,7.48-4.75,14.69-12.13,18.97Z"/>
        <path class="cls-8" d="m288.04,102.34l-55.7,32.16c-21.91,12.65-48.9,12.65-70.81,0h0c-7.36-4.25-11.25-11.5-11.69-18.92-.49,8.35,3.41,16.93,11.69,21.71h0c21.91,12.65,48.9,12.65,70.81,0l55.7-32.16c8.33-4.81,12.25-13.44,11.77-21.85-.43,7.48-4.35,14.78-11.77,19.06Z"/>
        <path class="cls-8" d="m161.53,97.84l56.19-32.44c21.76-12.56,48.56-12.56,70.32,0h0c7.27,4.2,11.18,11.31,11.73,18.64.64-8.54-3.26-17.38-11.73-22.27h0c-21.76-12.56-48.56-12.56-70.32,0l-56.19,32.44c-8.42,4.86-12.3,13.64-11.65,22.13.55-7.28,4.43-14.33,11.65-18.5Z"/>
        <path class="cls-1" d="m165.29,96.9l52.85-30.51c20.47-11.82,45.68-11.82,66.15,0h0c14.81,8.55,14.81,29.93,0,38.48l-52.39,30.25c-20.61,11.9-45.99,11.9-66.6,0h0c-14.71-8.49-14.71-29.72,0-38.22Z"/>
        <path class="cls-3" d="m172.52,99.59l51.02-29.23c16.69-9.64,37.26-9.64,53.96,0h0c12.08,6.98,12.08,24.41,0,31.39l-50.65,29.01c-16.81,9.7-37.52,9.7-54.33,0h0c-12-6.93-12-24.25,0-31.17Z"/>
        <g>
          <polygon class="cls-4" points="167.66 108.64 239.26 68 282.42 93.1 211.11 133.57 167.66 108.64"/>
          <g>
            <polyline class="cls-21" points="174.57 112.6 189.19 104.36 217.2 120.77 202.88 128.83"/>
            <polyline class="cls-21" points="179.75 115.57 188.64 110.57 205.66 120.54 196.96 125.44"/>
          </g>
          <g>
            <polyline class="cls-21" points="246.76 72.39 231.93 80.85 260.23 97.08 274.88 88.72"/>
            <polyline class="cls-21" points="269.05 85.35 259.72 90.72 242.51 80.85 251.99 75.4"/>
          </g>
          <line class="cls-21" x1="247.37" y1="113.07" x2="203.98" y2="88.02"/>
          <path class="cls-21" d="m232.26,105.5h0c3.76-2.17,3.76-7.6,0-9.78h0c-3.85-2.22-8.59-2.22-12.43,0h0c-3.76,2.17-3.76,7.6,0,9.78h0c3.85,2.22,8.59,2.22,12.43,0Z"/>
        </g>
        <g>
          <g>
            <polygon class="cls-15" points="264.41 174.67 264.41 153.65 311.52 126.44 311.52 147.46 264.41 174.67"/>
            <polygon class="cls-17" points="264.41 174.67 254.74 169.11 254.74 148.08 264.41 153.65 264.41 174.67"/>
            <polygon class="cls-38" points="254.74 148.08 301.86 120.88 311.52 126.44 264.41 153.65 254.74 148.08"/>
          </g>
          <g>
            <polygon class="cls-15" points="282.07 171.27 282.07 150.25 305.63 136.64 305.63 157.67 282.07 171.27"/>
            <polygon class="cls-14" points="284.61 169.83 284.61 151.34 303.09 140.67 303.09 159.16 284.61 169.83"/>
            <polygon class="cls-17" points="282.07 171.27 276.18 167.87 276.18 146.85 282.07 150.25 282.07 171.27"/>
            <polygon class="cls-38" points="276.18 146.85 299.74 133.24 305.63 136.64 282.07 150.25 276.18 146.85"/>
            <polygon class="cls-16" points="303.09 159.16 284.7 151.3 303.09 140.67 303.09 159.16"/>
          </g>
        </g>
        <g>
          <polygon class="cls-8" points="238.33 172.46 238.33 169.76 241.48 167.94 241.48 170.64 238.33 172.46"/>
          <polygon class="cls-37" points="238.33 172.46 238.02 172.28 238.02 169.58 238.33 169.76 238.33 172.46"/>
          <polygon class="cls-27" points="238.02 169.58 241.18 167.76 241.48 167.94 238.33 169.76 238.02 169.58"/>
        </g>
        <g>
          <polygon class="cls-8" points="242.5 169.94 242.5 167.24 245.66 165.42 245.66 168.12 242.5 169.94"/>
          <polygon class="cls-37" points="242.5 169.94 242.2 169.76 242.2 167.06 242.5 167.24 242.5 169.94"/>
          <polygon class="cls-27" points="242.2 167.06 245.35 165.24 245.66 165.42 242.5 167.24 242.2 167.06"/>
        </g>
        <g>
          <polygon class="cls-8" points="246.54 167.59 246.54 164.89 249.7 163.07 249.7 165.77 246.54 167.59"/>
          <polygon class="cls-37" points="246.54 167.59 246.24 167.42 246.24 164.72 246.54 164.89 246.54 167.59"/>
          <polygon class="cls-27" points="246.24 164.72 249.39 162.9 249.7 163.07 246.54 164.89 246.24 164.72"/>
        </g>
        <g>
          <polygon class="cls-8" points="250.58 165.24 250.58 162.55 253.74 160.73 253.74 163.42 250.58 165.24"/>
          <polygon class="cls-37" points="250.58 165.24 250.27 165.07 250.27 162.37 250.58 162.55 250.58 165.24"/>
          <polygon class="cls-27" points="250.27 162.37 253.43 160.55 253.74 160.73 250.58 162.55 250.27 162.37"/>
        </g>
        <g>
          <polygon class="cls-8" points="312.11 129.88 312.11 127.18 315.27 125.36 315.27 128.06 312.11 129.88"/>
          <polygon class="cls-37" points="312.11 129.88 311.8 129.7 311.8 127 312.11 127.18 312.11 129.88"/>
          <polygon class="cls-27" points="311.8 127 314.96 125.18 315.27 125.36 312.11 127.18 311.8 127"/>
        </g>
        <g>
          <polygon class="cls-8" points="316.15 127.53 316.15 124.83 319.3 123.01 319.3 125.71 316.15 127.53"/>
          <polygon class="cls-37" points="316.15 127.53 315.84 127.36 315.84 124.66 316.15 124.83 316.15 127.53"/>
          <polygon class="cls-27" points="315.84 124.66 319 122.84 319.3 123.01 316.15 124.83 315.84 124.66"/>
        </g>
        <g>
          <polygon class="cls-8" points="320.19 125.18 320.19 122.49 323.34 120.67 323.34 123.36 320.19 125.18"/>
          <polygon class="cls-37" points="320.19 125.18 319.88 125.01 319.88 122.31 320.19 122.49 320.19 125.18"/>
          <polygon class="cls-27" points="319.88 122.31 323.04 120.49 323.34 120.67 320.19 122.49 319.88 122.31"/>
        </g>
        <g>
          <g>
            <polygon class="cls-15" points="118.47 177.3 118.47 155.26 111.79 151.46 111.79 173.49 118.47 177.3"/>
            <polygon class="cls-17" points="118.47 177.3 123.49 174.41 123.49 150.03 118.47 155.26 118.47 177.3"/>
            <polygon class="cls-38" points="123.49 150.03 116.82 146.23 111.79 151.46 118.47 155.26 123.49 150.03"/>
          </g>
          <g>
            <polygon class="cls-15" points="128.95 183.32 128.95 161.28 122.27 157.48 122.27 179.51 128.95 183.32"/>
            <polygon class="cls-17" points="128.95 183.32 133.97 180.43 133.97 156.05 128.95 161.28 128.95 183.32"/>
            <polygon class="cls-38" points="133.97 156.05 127.29 152.25 122.27 157.48 128.95 161.28 133.97 156.05"/>
          </g>
        </g>
        <g>
          <path class="cls-24" d="m197.12,87.18l.63-.36-.75-.43-.06.04h0c-.44-.1-.84.05-1.18.28h0s-5.91,3.44-5.91,3.44c0,0,.69.11.71.11,0,0,.1-.03.22-.08l.58.33,3.95-2.28,2.38,1.3-.57-2.34Z"/>
          <path class="cls-12" d="m189.54,90.28c-.73.42-1.21,1.26-1.21,1.26l3.02,1.64v-2.68l-.33-.19c-.45-.26-1.02-.29-1.47-.03Z"/>
          <polygon class="cls-35" points="191.35 93.19 191.35 90.51 197.75 86.82 197.75 89.5 191.35 93.19"/>
        </g>
        <g>
          <path class="cls-36" d="m194.65,149.4c-14.39,0-28.77-3.7-41.6-11.11-9.28-5.36-15.04-15.44-15.04-26.31s5.26-19.71,14.06-24.8l62.82-36.44c25.5-14.72,57.17-14.72,82.66,0,9.34,5.39,15.14,15.53,15.14,26.47s-5.29,19.84-14.15,24.96l-62.26,36.12c-12.83,7.41-27.22,11.11-41.61,11.11Zm61.56-105.17c-13.51,0-27.01,3.48-39.06,10.43l-62.82,36.44c-7.38,4.26-11.79,12.06-11.79,20.87,0,9.26,4.89,17.83,12.77,22.38,12.13,7,25.73,10.51,39.34,10.51,13.6,0,27.2-3.5,39.34-10.51l62.26-36.12c7.45-4.3,11.89-12.16,11.89-21.03,0-9.32-4.93-17.96-12.87-22.54-12.05-6.96-25.55-10.43-39.06-10.43Z"/>
          <path class="cls-35" d="m194.65,148.36c-14.39,0-28.77-3.7-41.6-11.11-9.28-5.36-15.04-15.44-15.04-26.31s5.26-19.71,14.06-24.8l62.82-36.44c25.5-14.72,57.17-14.72,82.66,0,9.34,5.39,15.14,15.53,15.14,26.47s-5.29,19.84-14.15,24.96l-62.26,36.12c-12.83,7.41-27.22,11.11-41.61,11.11Zm61.56-105.17c-13.51,0-27.01,3.48-39.06,10.43l-62.82,36.44c-7.38,4.26-11.79,12.06-11.79,20.87,0,9.26,4.89,17.83,12.77,22.38,12.13,7,25.73,10.51,39.34,10.51,13.6,0,27.2-3.5,39.34-10.51l62.26-36.12c7.45-4.3,11.89-12.16,11.89-21.03,0-9.32-4.93-17.96-12.87-22.54-12.05-6.95-25.55-10.43-39.06-10.43Z"/>
        </g>
        <g>
          <g>
            <g>
              <polyline class="cls-22" points="193.58 118.47 191.7 119.57 190.24 125.54 181.34 120.41 182.79 114.44 184.68 113.34"/>
              <polyline class="cls-22" points="190.24 125.54 193.58 123.61 193.58 118.47 184.68 113.32 184.68 118.47 181.34 120.41"/>
            </g>
            <line class="cls-22" x1="191.7" y1="119.57" x2="182.79" y2="114.44"/>
          </g>
          <g>
            <polyline class="cls-22" points="267.93 80.68 264.59 82.61 264.59 77.47 255.69 72.32 255.69 77.47 259.03 75.56"/>
            <polyline class="cls-22" points="255.69 72.35 257.66 71.21 259.03 75.56 267.93 80.68 266.57 76.33 264.59 77.47"/>
            <line class="cls-22" x1="266.57" y1="76.33" x2="257.66" y2="71.21"/>
          </g>
        </g>
        <path class="cls-33" d="m319.3,32.23h0c-36.31-20.96-81.04-20.96-117.34,0l-76.97,44.44c-26.09,15.07-26.09,52.73,0,67.8h0c36.56,21.11,81.6,21.11,118.15,0l76.16-43.97c26.27-15.17,26.27-53.09,0-68.26Zm-15.05,60.91l-74.39,43.13c-27.7,15.99-61.82,15.99-89.52,0h0c-19.77-11.41-19.77-39.95,0-51.36l75-43.48c27.51-15.88,61.4-15.88,88.9,0h0c19.91,11.49,19.91,40.23,0,51.72Z"/>
        <path class="cls-28" d="m319.3,32.88h0c-36.31-20.96-81.04-20.96-117.34,0l-76.97,44.44c-26.09,15.07-26.09,52.73,0,67.8h0c36.56,21.11,81.6,21.11,118.15,0l76.16-43.97c26.27-15.17,26.27-53.09,0-68.26Zm-1.78,68.04l-74.76,43.17c-35.89,20.72-80.1,20.72-115.99,0h0c-25.62-14.79-25.62-51.77,0-66.56l75.56-43.62c35.64-20.58,79.55-20.58,115.19,0h0c25.79,14.89,25.79,52.12,0,67.01Z"/>
        <path class="cls-16" d="m319.3,32.23h0c-36.31-20.96-81.04-20.96-117.34,0l-76.97,44.44c-26.09,15.07-26.09,52.73,0,67.8h0c36.56,21.11,81.6,21.11,118.15,0l76.16-43.97c26.27-15.17,26.27-53.09,0-68.26Zm-1.78,68.04l-74.76,43.17c-35.89,20.72-80.1,20.72-115.99,0h0c-25.62-14.79-25.62-51.77,0-66.56l75.56-43.62c35.64-20.58,79.55-20.58,115.19,0h0c25.79,14.89,25.79,52.12,0,67.01Z"/>
        <g>
          <g>
            <polygon class="cls-29" points="234.6 125.44 244.94 119.47 244.94 128.42 234.6 134.39 234.6 125.44"/>
            <polygon class="cls-26" points="234.6 125.44 234.38 125.32 244.73 119.35 244.94 119.47 234.6 125.44"/>
            <polygon class="cls-19" points="234.6 134.39 234.6 125.44 234.38 125.32 234.38 134.27 234.6 134.39"/>
            <g>
              <path class="cls-2" d="m237.85,131.39v3.09c0,.08.04.16.12.2h0c.16.09.36.09.51,0h0c.08-.05.12-.12.12-.2v-3.09h-.75Z"/>
              <path class="cls-29" d="m238.49,131.59h0c.16-.09.16-.31,0-.4h0c-.16-.09-.36-.09-.51,0h0c-.16.09-.16.31,0,.4h0c.16.09.36.09.51,0Z"/>
            </g>
            <g>
              <path class="cls-2" d="m242.35,128.51v3.09c0,.08.04.16.12.2h0c.16.09.36.09.51,0h0c.08-.05.12-.12.12-.2v-3.09h-.75Z"/>
              <path class="cls-29" d="m242.99,128.71h0c.16-.09.16-.31,0-.4h0c-.16-.09-.36-.09-.51,0h0c-.16.09-.16.31,0,.4h0c.16.09.36.09.51,0Z"/>
            </g>
          </g>
          <g>
            <polygon class="cls-29" points="265.07 107.89 275.42 101.91 275.42 110.87 265.07 116.84 265.07 107.89"/>
            <polygon class="cls-26" points="265.07 107.89 264.86 107.77 275.2 101.79 275.42 101.91 265.07 107.89"/>
            <polygon class="cls-19" points="265.07 116.84 265.07 107.89 264.86 107.77 264.86 116.72 265.07 116.84"/>
            <g>
              <path class="cls-2" d="m268.33,113.84v3.09c0,.08.04.16.12.2h0c.16.09.36.09.51,0h0c.08-.04.12-.12.12-.2v-3.09h-.75Z"/>
              <path class="cls-29" d="m268.96,114.04h0c.16-.09.16-.32,0-.41h0c-.16-.09-.36-.09-.51,0h0c-.16.09-.16.32,0,.41h0c.16.09.36.09.51,0Z"/>
            </g>
            <g>
              <path class="cls-2" d="m272.83,110.96v3.09c0,.08.04.16.12.2h0c.16.09.36.09.51,0h0c.08-.05.12-.12.12-.2v-3.09h-.75Z"/>
              <path class="cls-29" d="m273.46,111.16h0c.16-.09.16-.31,0-.41h0c-.16-.09-.36-.09-.51,0h0c-.16.09-.16.32,0,.41h0c.16.09.36.09.51,0Z"/>
            </g>
          </g>
          <g>
            <polygon class="cls-29" points="292.93 91.9 303.27 85.93 303.27 94.89 292.93 100.86 292.93 91.9"/>
            <polygon class="cls-26" points="292.93 91.9 292.72 91.78 303.06 85.81 303.27 85.93 292.93 91.9"/>
            <polygon class="cls-19" points="292.93 100.86 292.93 91.9 292.72 91.78 292.72 100.74 292.93 100.86"/>
            <g>
              <path class="cls-2" d="m296.19,97.85v3.09c0,.08.04.16.12.2h0c.16.09.36.09.51,0h0c.08-.04.12-.12.12-.2v-3.09h-.75Z"/>
              <path class="cls-29" d="m296.82,98.05h0c.16-.09.16-.31,0-.4h0c-.16-.09-.36-.09-.51,0h0c-.16.09-.16.31,0,.4h0c.16.09.36.09.51,0Z"/>
            </g>
            <g>
              <path class="cls-2" d="m300.68,94.97v3.09c0,.08.04.16.12.2h0c.16.09.36.09.51,0h0c.08-.04.12-.12.12-.2v-3.09h-.75Z"/>
              <path class="cls-29" d="m301.32,95.17h0c.16-.09.16-.31,0-.4h0c-.16-.09-.36-.09-.51,0h0c-.16.09-.16.32,0,.4h0c.16.09.36.09.51,0Z"/>
            </g>
          </g>
        </g>
        <g>
          <g>
            <g>
              <g>
                <path class="cls-2" d="m144.1,77.68v3.09c0,.08.04.16.12.2h0c.16.09.36.09.51,0h0c.08-.04.12-.12.12-.2v-3.09h-.75Z"/>
                <path class="cls-29" d="m144.74,77.88h0c.16-.09.16-.31,0-.4h0c-.16-.09-.36-.09-.51,0h0c-.16.09-.16.31,0,.4h0c.16.09.36.09.51,0Z"/>
              </g>
              <g>
                <path class="cls-2" d="m148.6,74.8v3.09c0,.08.04.16.12.2h0c.16.09.36.09.51,0h0c.08-.05.12-.12.12-.2v-3.09h-.75Z"/>
                <path class="cls-29" d="m149.24,75h0c.16-.09.16-.31,0-.4h0c-.16-.09-.36-.09-.51,0h0c-.16.09-.16.31,0,.4h0c.16.09.36.09.51,0Z"/>
              </g>
              <polygon class="cls-29" points="141 71.66 151.35 65.69 151.35 74.65 141 80.62 141 71.66"/>
              <polygon class="cls-26" points="141 71.66 140.79 71.54 151.13 65.57 151.35 65.69 141 71.66"/>
              <polygon class="cls-19" points="141 80.62 141 71.66 140.79 71.54 140.79 80.5 141 80.62"/>
            </g>
            <g>
              <path class="cls-10" d="m142.89,72.66c-.22.37-.59.56-.83.42-.24-.14-.25-.56-.03-.93.22-.37.59-.56.83-.42.24.14.25.56.03.93Z"/>
              <path class="cls-10" d="m144.79,71.54c-.22.37-.59.56-.83.42-.24-.14-.25-.56-.03-.93.22-.37.59-.56.83-.42.24.14.25.56.03.93Z"/>
              <path class="cls-10" d="m146.7,70.43c-.22.37-.59.56-.83.42-.24-.14-.25-.56-.03-.93.22-.37.59-.56.83-.42.24.14.25.56.03.93Z"/>
              <path class="cls-10" d="m148.6,69.33c-.22.37-.59.56-.83.42s-.25-.56-.03-.93c.22-.37.59-.56.83-.42.24.14.25.56.03.93Z"/>
              <path class="cls-10" d="m150.51,68.23c-.22.37-.59.56-.83.42-.24-.14-.25-.56-.03-.93.22-.37.59-.56.83-.42.24.14.25.56.03.93Z"/>
            </g>
            <g>
              <path class="cls-10" d="m142.89,74.79c-.22.37-.59.56-.83.42-.24-.14-.25-.56-.03-.93.22-.37.59-.56.83-.42.24.14.25.56.03.93Z"/>
              <path class="cls-10" d="m144.79,73.68c-.22.37-.59.56-.83.42-.24-.14-.25-.56-.03-.93.22-.37.59-.56.83-.42.24.14.25.56.03.93Z"/>
              <path class="cls-10" d="m146.7,72.56c-.22.37-.59.56-.83.42-.24-.14-.25-.56-.03-.93.22-.37.59-.56.83-.42.24.14.25.56.03.93Z"/>
              <path class="cls-10" d="m148.6,71.46c-.22.37-.59.56-.83.42s-.25-.56-.03-.93c.22-.37.59-.56.83-.42.24.14.25.56.03.93Z"/>
              <path class="cls-10" d="m150.51,70.36c-.22.37-.59.56-.83.42-.24-.14-.25-.56-.03-.93.22-.37.59-.56.83-.42.24.14.25.56.03.93Z"/>
            </g>
            <g>
              <path class="cls-10" d="m142.89,76.92c-.22.37-.59.56-.83.42-.24-.14-.25-.56-.03-.93.22-.37.59-.56.83-.42.24.14.25.56.03.93Z"/>
              <path class="cls-10" d="m144.79,75.81c-.22.37-.59.56-.83.42-.24-.14-.25-.56-.03-.93.22-.37.59-.56.83-.42.24.14.25.56.03.93Z"/>
              <path class="cls-10" d="m146.7,74.7c-.22.37-.59.56-.83.42-.24-.14-.25-.56-.03-.93.22-.37.59-.56.83-.42.24.14.25.56.03.93Z"/>
              <path class="cls-10" d="m148.6,73.59c-.22.37-.59.56-.83.42-.24-.14-.25-.56-.03-.93.22-.37.59-.56.83-.42.24.14.25.56.03.93Z"/>
              <path class="cls-10" d="m150.51,72.49c-.22.37-.59.56-.83.42-.24-.14-.25-.56-.03-.93.22-.37.59-.56.83-.42.24.14.25.56.03.93Z"/>
            </g>
            <g>
              <path class="cls-10" d="m142.89,79.06c-.22.37-.59.56-.83.42-.24-.14-.25-.56-.03-.93.22-.37.59-.56.83-.42.24.14.25.56.03.93Z"/>
              <path class="cls-10" d="m144.79,77.94c-.22.37-.59.56-.83.42-.24-.14-.25-.56-.03-.93.22-.37.59-.56.83-.42.24.14.25.56.03.93Z"/>
              <path class="cls-10" d="m146.7,76.83c-.22.37-.59.56-.83.42-.24-.14-.25-.56-.03-.93.22-.37.59-.56.83-.42.24.14.25.56.03.93Z"/>
              <path class="cls-10" d="m148.6,75.73c-.22.37-.59.56-.83.42-.24-.14-.25-.56-.03-.93.22-.37.59-.56.83-.42.24.14.25.56.03.93Z"/>
              <path class="cls-10" d="m150.51,74.63c-.22.37-.59.56-.83.42-.24-.14-.25-.56-.03-.93.22-.37.59-.56.83-.42.24.14.25.56.03.93Z"/>
            </g>
          </g>
          <g>
            <g>
              <g>
                <path class="cls-2" d="m174.58,60.25v3.09c0,.08.04.16.12.2h0c.16.09.36.09.51,0h0c.08-.04.12-.12.12-.2v-3.09h-.75Z"/>
                <path class="cls-29" d="m175.21,60.45h0c.16-.09.16-.31,0-.4h0c-.16-.09-.36-.09-.51,0h0c-.16.09-.16.31,0,.4h0c.16.09.36.09.51,0Z"/>
              </g>
              <g>
                <path class="cls-2" d="m179.08,57.37v3.09c0,.08.04.16.12.2h0c.16.09.36.09.51,0h0c.08-.05.12-.12.12-.2v-3.09h-.75Z"/>
                <path class="cls-29" d="m179.71,57.57h0c.16-.09.16-.31,0-.4h0c-.16-.09-.36-.09-.51,0h0c-.16.09-.16.31,0,.4h0c.16.09.36.09.51,0Z"/>
              </g>
              <polygon class="cls-29" points="171.48 54.23 181.82 48.26 181.82 57.22 171.48 63.19 171.48 54.23"/>
              <polygon class="cls-26" points="171.48 54.23 171.27 54.11 181.61 48.14 181.82 48.26 171.48 54.23"/>
              <polygon class="cls-19" points="171.48 63.19 171.48 54.23 171.27 54.11 171.27 63.07 171.48 63.19"/>
            </g>
            <g>
              <path class="cls-10" d="m173.36,55.22c-.22.37-.59.56-.83.42-.24-.14-.25-.56-.03-.93.22-.37.59-.56.83-.42.24.14.25.56.03.93Z"/>
              <path class="cls-10" d="m175.27,54.11c-.22.37-.59.56-.83.42-.24-.14-.25-.56-.03-.93.22-.37.59-.56.83-.42.24.14.25.56.03.93Z"/>
              <path class="cls-10" d="m177.18,53c-.22.37-.59.56-.83.42-.24-.14-.25-.56-.03-.93.22-.37.59-.56.83-.42.24.14.25.56.03.93Z"/>
              <path class="cls-10" d="m179.08,51.89c-.22.37-.59.56-.83.42-.24-.14-.25-.56-.03-.93.22-.37.59-.56.83-.42.24.14.25.56.03.93Z"/>
              <path class="cls-10" d="m180.99,50.79c-.22.37-.59.56-.83.42-.24-.14-.25-.56-.03-.93s.59-.56.83-.42c.24.14.25.56.03.93Z"/>
            </g>
            <g>
              <path class="cls-10" d="m173.36,57.36c-.22.37-.59.56-.83.42-.24-.14-.25-.56-.03-.93.22-.37.59-.56.83-.42.24.14.25.56.03.93Z"/>
              <path class="cls-10" d="m175.27,56.24c-.22.37-.59.56-.83.42-.24-.14-.25-.56-.03-.93s.59-.56.83-.42c.24.14.25.56.03.93Z"/>
              <path class="cls-10" d="m177.18,55.13c-.22.37-.59.56-.83.42-.24-.14-.25-.56-.03-.93.22-.37.59-.56.83-.42.24.14.25.56.03.93Z"/>
              <path class="cls-10" d="m179.08,54.03c-.22.37-.59.56-.83.42-.24-.14-.25-.56-.03-.93.22-.37.59-.56.83-.42.24.14.25.56.03.93Z"/>
              <path class="cls-10" d="m180.99,52.93c-.22.37-.59.56-.83.42-.24-.14-.25-.56-.03-.93s.59-.56.83-.42c.24.14.25.56.03.93Z"/>
            </g>
            <g>
              <path class="cls-10" d="m173.36,59.49c-.22.37-.59.56-.83.42-.24-.14-.25-.56-.03-.93.22-.37.59-.56.83-.42.24.14.25.56.03.93Z"/>
              <path class="cls-10" d="m175.27,58.38c-.22.37-.59.56-.83.42-.24-.14-.25-.56-.03-.93.22-.37.59-.56.83-.42.24.14.25.56.03.93Z"/>
              <path class="cls-10" d="m177.18,57.26c-.22.37-.59.56-.83.42-.24-.14-.25-.56-.03-.93.22-.37.59-.56.83-.42.24.14.25.56.03.93Z"/>
              <path class="cls-10" d="m179.08,56.16c-.22.37-.59.56-.83.42-.24-.14-.25-.56-.03-.93.22-.37.59-.56.83-.42s.25.56.03.93Z"/>
              <path class="cls-10" d="m180.99,55.06c-.22.37-.59.56-.83.42-.24-.14-.25-.56-.03-.93.22-.37.59-.56.83-.42.24.14.25.56.03.93Z"/>
            </g>
            <g>
              <path class="cls-10" d="m173.36,61.62c-.22.37-.59.56-.83.42-.24-.14-.25-.56-.03-.93.22-.37.59-.56.83-.42.24.14.25.56.03.93Z"/>
              <path class="cls-10" d="m175.27,60.51c-.22.37-.59.56-.83.42-.24-.14-.25-.56-.03-.93s.59-.56.83-.42c.24.14.25.56.03.93Z"/>
              <path class="cls-10" d="m177.18,59.4c-.22.37-.59.56-.83.42-.24-.14-.25-.56-.03-.93.22-.37.59-.56.83-.42.24.14.25.56.03.93Z"/>
              <path class="cls-10" d="m179.08,58.29c-.22.37-.59.56-.83.42-.24-.14-.25-.56-.03-.93.22-.37.59-.56.83-.42s.25.56.03.93Z"/>
              <path class="cls-10" d="m180.99,57.2c-.22.37-.59.56-.83.42-.24-.14-.25-.56-.03-.93s.59-.56.83-.42c.24.14.25.56.03.93Z"/>
            </g>
          </g>
          <g>
            <g>
              <g>
                <path class="cls-2" d="m202.44,43.99v3.09c0,.08.04.16.12.2h0c.16.09.36.09.51,0h0c.08-.04.12-.12.12-.2v-3.09h-.75Z"/>
                <path class="cls-29" d="m203.07,44.2h0c.16-.09.16-.31,0-.4h0c-.16-.09-.36-.09-.51,0h0c-.16.09-.16.31,0,.4h0c.16.09.36.09.51,0Z"/>
              </g>
              <g>
                <path class="cls-2" d="m206.93,41.11v3.09c0,.08.04.16.12.2h0c.16.09.36.09.51,0h0c.08-.04.12-.12.12-.2v-3.09h-.75Z"/>
                <path class="cls-29" d="m207.57,41.31h0c.16-.09.16-.31,0-.4h0c-.16-.09-.36-.09-.51,0h0c-.16.09-.16.31,0,.4h0c.16.09.36.09.51,0Z"/>
              </g>
              <polygon class="cls-29" points="199.33 37.97 209.68 32 209.68 40.96 199.33 46.93 199.33 37.97"/>
              <polygon class="cls-26" points="199.33 37.97 199.12 37.85 209.46 31.88 209.68 32 199.33 37.97"/>
              <polygon class="cls-19" points="199.33 46.93 199.33 37.97 199.12 37.85 199.12 46.81 199.33 46.93"/>
            </g>
            <g>
              <path class="cls-10" d="m201.22,38.97c-.22.37-.59.56-.83.42-.24-.14-.25-.56-.03-.93.22-.37.59-.56.83-.42.24.14.25.56.03.93Z"/>
              <path class="cls-10" d="m203.12,37.85c-.22.37-.59.56-.83.42-.24-.14-.25-.56-.03-.93.22-.37.59-.56.83-.42.24.14.25.56.03.93Z"/>
              <path class="cls-10" d="m205.03,36.74c-.22.37-.59.56-.83.42-.24-.14-.25-.56-.03-.93.22-.37.59-.56.83-.42.24.14.25.56.03.93Z"/>
              <path class="cls-10" d="m206.93,35.64c-.22.37-.59.56-.83.42-.24-.14-.25-.56-.03-.93.22-.37.59-.56.83-.42.24.14.25.56.03.93Z"/>
              <path class="cls-10" d="m208.84,34.54c-.22.37-.59.56-.83.42-.24-.14-.25-.56-.03-.93s.59-.56.83-.42c.24.14.25.56.03.93Z"/>
            </g>
            <g>
              <path class="cls-10" d="m201.22,41.1c-.22.37-.59.56-.83.42-.24-.14-.25-.56-.03-.93.22-.37.59-.56.83-.42.24.14.25.56.03.93Z"/>
              <path class="cls-10" d="m203.12,39.99c-.22.37-.59.56-.83.42-.24-.14-.25-.56-.03-.93.22-.37.59-.56.83-.42.24.14.25.56.03.93Z"/>
              <path class="cls-10" d="m205.03,38.87c-.22.37-.59.56-.83.42-.24-.14-.25-.56-.03-.93.22-.37.59-.56.83-.42.24.14.25.56.03.93Z"/>
              <path class="cls-10" d="m206.93,37.77c-.22.37-.59.56-.83.42-.24-.14-.25-.56-.03-.93.22-.37.59-.56.83-.42.24.14.25.56.03.93Z"/>
              <path class="cls-10" d="m208.84,36.67c-.22.37-.59.56-.83.42-.24-.14-.25-.56-.03-.93.22-.37.59-.56.83-.42.24.14.25.56.03.93Z"/>
            </g>
            <g>
              <path class="cls-10" d="m201.22,43.23c-.22.37-.59.56-.83.42-.24-.14-.25-.56-.03-.93.22-.37.59-.56.83-.42.24.14.25.56.03.93Z"/>
              <path class="cls-10" d="m203.12,42.12c-.22.37-.59.56-.83.42-.24-.14-.25-.56-.03-.93.22-.37.59-.56.83-.42.24.14.25.56.03.93Z"/>
              <path class="cls-10" d="m205.03,41.01c-.22.37-.59.56-.83.42-.24-.14-.25-.56-.03-.93.22-.37.59-.56.83-.42.24.14.25.56.03.93Z"/>
              <path class="cls-10" d="m206.93,39.9c-.22.37-.59.56-.83.42-.24-.14-.25-.56-.03-.93.22-.37.59-.56.83-.42.24.14.25.56.03.93Z"/>
              <path class="cls-10" d="m208.84,38.8c-.22.37-.59.56-.83.42-.24-.14-.25-.56-.03-.93s.59-.56.83-.42c.24.14.25.56.03.93Z"/>
            </g>
            <g>
              <path class="cls-10" d="m201.22,45.37c-.22.37-.59.56-.83.42-.24-.14-.25-.56-.03-.93.22-.37.59-.56.83-.42.24.14.25.56.03.93Z"/>
              <path class="cls-10" d="m203.12,44.25c-.22.37-.59.56-.83.42-.24-.14-.25-.56-.03-.93.22-.37.59-.56.83-.42.24.14.25.56.03.93Z"/>
              <path class="cls-10" d="m205.03,43.14c-.22.37-.59.56-.83.42-.24-.14-.25-.56-.03-.93.22-.37.59-.56.83-.42.24.14.25.56.03.93Z"/>
              <path class="cls-10" d="m206.93,42.04c-.22.37-.59.56-.83.42-.24-.14-.25-.56-.03-.93.22-.37.59-.56.83-.42.24.14.25.56.03.93Z"/>
              <path class="cls-10" d="m208.84,40.94c-.22.37-.59.56-.83.42-.24-.14-.25-.56-.03-.93s.59-.56.83-.42c.24.14.25.56.03.93Z"/>
            </g>
          </g>
        </g>
        <g>
          <g>
            <path class="cls-29" d="m300.29,29.9v6.17c0,.16.08.31.23.4h0c.32.18.71.18,1.03,0h0c.16-.09.23-.25.23-.4v-6.17h-1.5Z"/>
            <path class="cls-29" d="m301.55,30.3h0c.31-.18.31-.63,0-.81h0c-.32-.18-.71-.18-1.03,0h0c-.31.18-.31.63,0,.81h0c.32.18.71.18,1.03,0Z"/>
          </g>
          <g>
            <path class="cls-29" d="m313.26,37.43v6.17c0,.16.08.31.23.4h0c.32.18.71.18,1.03,0h0c.16-.09.23-.25.23-.4v-6.17h-1.5Z"/>
            <path class="cls-29" d="m314.52,37.83h0c.31-.18.31-.63,0-.81h0c-.32-.18-.71-.18-1.03,0h0c-.31.18-.31.63,0,.81h0c.32.18.71.18,1.03,0Z"/>
          </g>
          <polygon class="cls-25" points="320.83 44.5 320.83 28.78 294.81 13.74 294.81 29.47 320.83 44.5"/>
          <polygon class="cls-5" points="319.53 42.53 319.53 29.45 296.15 15.98 296.15 29.06 319.53 42.53"/>
          <polygon class="cls-18" points="320.83 44.5 322.47 43.56 322.47 27.83 320.83 28.78 320.83 44.5"/>
          <polygon class="cls-30" points="322.47 27.83 296.45 12.8 294.81 13.74 320.83 28.78 322.47 27.83"/>
        </g>
        <g>
          <polygon class="cls-7" points="149.69 141.72 149.69 129.76 123.67 114.73 123.67 126.68 149.69 141.72"/>
          <polygon class="cls-18" points="149.69 141.72 150.66 141.17 150.66 129.22 149.69 129.76 149.69 141.72"/>
          <polygon class="cls-30" points="150.66 129.22 124.63 114.18 123.67 114.73 149.69 129.76 150.66 129.22"/>
          <g>
            <path class="cls-29" d="m127.85,126.41v6.17c0,.16.08.31.23.4h0c.32.18.71.18,1.03,0h0c.16-.09.23-.25.23-.4v-6.17h-1.5Z"/>
            <path class="cls-9" d="m129.12,126.81h0c.31-.18.31-.63,0-.81h0c-.32-.18-.71-.18-1.03,0h0c-.31.18-.31.63,0,.81h0c.32.18.71.18,1.03,0Z"/>
          </g>
          <g>
            <path class="cls-29" d="m142.12,134.64v6.17c0,.16.08.31.23.4h0c.32.18.71.18,1.03,0h0c.16-.09.23-.25.23-.4v-6.17h-1.5Z"/>
            <path class="cls-9" d="m143.38,135.05h0c.31-.18.31-.63,0-.81h0c-.32-.18-.71-.18-1.03,0h0c-.31.18-.31.63,0,.81h0c.32.18.71.18,1.03,0Z"/>
          </g>
        </g>
        <path class="cls-4" d="m187.95,208.08c-2.91-1.67-1.85-6.1,1.51-6.27,12.6-.65,32.91-3.97,53.83-16.79l5.56-3.05,17.67,10.2-53.01,30.6-25.56-14.7Z"/>
        <path class="cls-4" d="m390.03,120.67l-46.94,27.3-17.67-9.9s31.19-16.88,32.5-30.45c.23-2.44,2.9-3.81,5.02-2.59l27.09,15.64Z"/>
        <g>
          <g>
            <path class="cls-39" d="m272.07,171.16v17.58c0,.07.04.14.11.19h0c.15.08.33.08.47,0h0c.07-.04.11-.11.11-.19v-17.58h-.69Z"/>
            <path class="cls-29" d="m272.65,171.35h0c.14-.08.14-.29,0-.37h0c-.15-.08-.33-.08-.47,0h0c-.14.08-.14.29,0,.37h0c.15.08.33.08.47,0Z"/>
          </g>
          <path class="cls-6" d="m275.17,171.93c0,1.52-1.24,2.76-2.76,2.76s-2.76-1.24-2.76-2.76,1.23-2.76,2.76-2.76,2.76,1.24,2.76,2.76Z"/>
        </g>
        <g>
          <g>
            <path class="cls-39" d="m336.85,133.25v17.58c0,.07.04.14.11.19h0c.15.08.33.08.47,0h0c.07-.04.11-.11.11-.19v-17.58h-.69Z"/>
            <path class="cls-29" d="m337.43,133.43h0c.14-.08.14-.29,0-.37h0c-.15-.08-.33-.08-.47,0h0c-.14.08-.14.29,0,.37h0c.15.08.33.08.47,0Z"/>
          </g>
          <path class="cls-6" d="m339.95,134.02c0,1.52-1.24,2.76-2.76,2.76s-2.76-1.24-2.76-2.76,1.23-2.76,2.76-2.76,2.76,1.24,2.76,2.76Z"/>
        </g>
        <g>
          <path class="cls-24" d="m212.85,78.15l.63-.36-.75-.43-.06.04h0c-.44-.1-.84.05-1.18.28h0s-5.91,3.44-5.91,3.44c0,0,.69.11.71.11,0,0,.1-.03.22-.08l.58.33,3.95-2.28,2.38,1.3-.57-2.34Z"/>
          <path class="cls-12" d="m205.28,81.25c-.73.42-1.21,1.26-1.21,1.26l3.02,1.64v-2.68l-.33-.19c-.45-.26-1.02-.29-1.47-.03Z"/>
          <polygon class="cls-35" points="207.08 84.16 207.08 81.47 213.48 77.79 213.48 80.47 207.08 84.16"/>
        </g>
      </g>
    </g>
  </g>
</svg>